<?xml version="1.0" encoding="utf-8"?>
<!-- Generator: Adobe Illustrator 24.0.0, SVG Export Plug-In . SVG Version: 6.00 Build 0)  -->
<svg version="1.1" id="Layer_1" xmlns="http://www.w3.org/2000/svg" xmlns:xlink="http://www.w3.org/1999/xlink" x="0px" y="0px"
	 viewBox="0 0 1200 751.82" style="enable-background:new 0 0 1200 751.82;" xml:space="preserve">
<style type="text/css">
	.st0{fill:url(#SVGID_1_);}
	.st1{fill:url(#SVGID_2_);}
	.st2{fill:url(#SVGID_3_);}
	.st3{fill:url(#SVGID_4_);}
	.st4{fill:url(#SVGID_5_);}
	.st5{fill:url(#SVGID_6_);}
	.st6{fill:url(#SVGID_7_);}
	.st7{fill:url(#SVGID_8_);}
	.st8{fill:url(#SVGID_9_);}
	.st9{fill:url(#SVGID_10_);}
	.st10{fill:url(#SVGID_11_);}
	.st11{fill:url(#SVGID_12_);}
	.st12{fill:url(#SVGID_13_);}
	.st13{fill:url(#SVGID_14_);}
	.st14{fill:url(#SVGID_15_);}
	.st15{fill:url(#SVGID_16_);}
	.st16{fill:url(#SVGID_17_);}
	.st17{fill:url(#SVGID_18_);}
	.st18{fill:url(#SVGID_19_);}
	.st19{fill:url(#SVGID_20_);}
	.st20{fill:url(#SVGID_21_);}
	.st21{fill:url(#SVGID_22_);}
	.st22{fill:url(#SVGID_23_);}
	.st23{fill:url(#SVGID_24_);}
	.st24{fill:url(#SVGID_25_);}
	.st25{fill:url(#SVGID_26_);}
	.st26{fill:url(#SVGID_27_);}
	.st27{fill:url(#SVGID_28_);}
	.st28{fill:url(#SVGID_29_);}
	.st29{fill:url(#SVGID_30_);}
	.st30{fill:url(#SVGID_31_);}
	.st31{fill:url(#SVGID_32_);}
	.st32{fill:url(#SVGID_33_);}
	.st33{fill:url(#SVGID_34_);}
	.st34{fill:url(#SVGID_35_);}
	.st35{fill:url(#SVGID_36_);}
	.st36{fill:url(#SVGID_37_);}
	.st37{fill:url(#SVGID_38_);}
	.st38{fill:url(#SVGID_39_);}
	.st39{fill:url(#SVGID_40_);}
	.st40{fill:url(#SVGID_41_);}
	.st41{fill:url(#SVGID_42_);}
	.st42{fill:url(#SVGID_43_);}
	.st43{fill:url(#SVGID_44_);}
	.st44{fill:#FFFFFF;}
	.st45{fill:url(#SVGID_45_);}
	.st46{fill:#FFFFFF;stroke:url(#SVGID_46_);stroke-miterlimit:10;}
	.st47{fill:#FFFFFF;stroke:url(#SVGID_47_);stroke-miterlimit:10;}
</style>
<g>
	<g>
		<linearGradient id="SVGID_1_" gradientUnits="userSpaceOnUse" x1="488.7144" y1="173.5203" x2="775.192" y2="173.5203">
			<stop  offset="0" style="stop-color:#FF00C8"/>
			<stop  offset="0.2988" style="stop-color:#FC00C9"/>
			<stop  offset="0.483" style="stop-color:#F400CE"/>
			<stop  offset="0.6361" style="stop-color:#E500D6"/>
			<stop  offset="0.7722" style="stop-color:#D100E1"/>
			<stop  offset="0.8959" style="stop-color:#B700EF"/>
			<stop  offset="1" style="stop-color:#9A00FF"/>
		</linearGradient>
		<path class="st0" d="M647.69,237.58c-0.05,17.6,0.39,31.87-2.99,45.96c-6.79,28.32-23.18,43.52-48.68,44.71
			c-25.32,1.18-53.43-18.02-60.65-41.95c-7.84-25.99-11.59-52.73-13.47-79.77c-1.05-15.25-1.16-15.34-16.46-14.87
			c-4.66,0.14-7.42-1.82-8.4-6.16c-2.73-12.04-5.16-24.15-8.01-36.16c-1.57-6.61,2.95-7.79,7.39-9.45
			c21.58-8.03,21.3-8.03,19.73-31.14c-1.49-21.94-2.11-43.95-3.6-65.89c-0.5-7.43,1.92-10.75,9.39-10.87
			c11.95-0.19,23.9-0.73,35.86-1.08c8.28-0.24,7.66,6.27,8.05,11.36c1.84,24.24,3.91,48.49,4.8,72.78
			c0.4,10.95,3.66,15.15,15.06,13.71c14.52-1.85,29.23-2.23,43.85-3.3c10.1-0.74,14.93-4.98,13.9-16.33
			c-2.27-24.97-2.73-50.11-5.13-75.06c-1.08-11.28,3.31-14.53,13.3-14.48c9.65,0.05,19.33,0.09,28.93-0.75
			c8.13-0.72,11.04,2.67,11.56,10.27c1.73,25.41,4.27,50.77,5.42,76.21c0.45,10.06,3.99,12.43,13.36,11.3
			c13.39-1.61,26.92-2.01,40.4-2.9c7.9-0.52,12.19,2.48,12.49,11.1c0.35,10.01,1.58,20,2.6,29.99c0.87,8.53-2.35,13-11.36,13.48
			c-13.87,0.74-27.7,2.25-41.57,3.08c-7.8,0.47-11,3.71-10.02,11.78c2.38,19.54,4.24,39.14,6.43,58.71
			c0.39,3.43,1.24,6.84,2.15,10.18c1.24,4.54,4.05,7.53,9.1,7.22c5.84-0.36,8.1-4.44,7.94-9.5c-0.42-13.49-1.15-26.98-2.01-40.46
			c-1.2-18.72-1.14-19.09,17.84-21.05c30.95-3.19,27.61-7.3,29.39,25.87c0.99,18.46,2.05,37.01-1.92,55.38
			c-6,27.8-22.5,44.7-45,45.8c-29.21,1.43-56.07-15.76-64.35-41.22c-8.9-27.38-11.86-55.83-14.38-84.27
			c-0.92-10.39-4.78-12.71-14.65-11.2c-16,2.45-32.2,3.66-48.35,4.99c-7.16,0.59-10.36,3.2-9.47,10.88
			c2.39,20.7,4.28,41.45,6.46,62.17c0.24,2.28,1.03,4.5,1.55,6.76c1.27,5.52,4.33,9.41,10.37,8.63c5.71-0.74,7.16-5.48,7.03-10.41
			c-0.39-15.82-0.44-31.68-1.81-47.43c-0.65-7.48,1.3-10.93,8.52-11.7c9.2-0.98,18.41-1.93,27.59-3.03
			c6.96-0.84,9.87,2.35,10.16,9.08C646.5,219.34,647.25,230.11,647.69,237.58z"/>
		<linearGradient id="SVGID_2_" gradientUnits="userSpaceOnUse" x1="488.7144" y1="173.5203" x2="775.1919" y2="173.5203">
			<stop  offset="0" style="stop-color:#FF00C8"/>
			<stop  offset="0.183" style="stop-color:#FC00C9"/>
			<stop  offset="0.324" style="stop-color:#F200CB"/>
			<stop  offset="0.4509" style="stop-color:#E200D0"/>
			<stop  offset="0.5697" style="stop-color:#CB00D5"/>
			<stop  offset="0.6827" style="stop-color:#AD00DD"/>
			<stop  offset="0.7914" style="stop-color:#8800E7"/>
			<stop  offset="0.8957" style="stop-color:#5C00F2"/>
			<stop  offset="0.9958" style="stop-color:#2B00FE"/>
			<stop  offset="1" style="stop-color:#2900FF"/>
		</linearGradient>
		<path class="st1" d="M682.56,19.82c5.71,0,8.01,2.54,8.48,9.36c0.64,9.35,1.39,18.84,2.13,28.02c1.26,15.78,2.56,32.1,3.29,48.16
			c0.41,9.06,3.39,12.58,10.65,12.58c1.15,0,2.43-0.09,3.91-0.26c9.46-1.14,19.17-1.68,28.57-2.2c3.86-0.21,7.85-0.44,11.77-0.7
			c0.55-0.04,1.09-0.06,1.59-0.06c6.59,0,9.51,3.03,9.75,10.13c0.28,8.12,1.15,16.33,2,24.27c0.2,1.93,0.41,3.86,0.61,5.79
			c0.43,4.18-0.18,7.15-1.85,9.11c-1.65,1.93-4.43,2.98-8.5,3.19c-7.37,0.39-14.85,1.01-22.07,1.61c-6.39,0.53-13,1.08-19.5,1.47
			c-4.46,0.27-7.37,1.39-9.17,3.55c-1.76,2.11-2.36,5.19-1.85,9.43c1.44,11.82,2.71,23.86,3.93,35.51c0.8,7.6,1.63,15.46,2.5,23.19
			c0.37,3.32,1.14,6.54,2.18,10.35c1.44,5.26,4.7,8.03,9.43,8.03c0.25,0,0.51-0.01,0.78-0.02c5.8-0.36,9.14-4.32,8.95-10.61
			c-0.37-11.97-1.01-24.83-2.01-40.49c-0.57-8.82-0.88-13.68,1.1-16.06c1.95-2.34,6.5-2.9,15.78-3.86c3.71-0.38,6.89-0.77,9.71-1.12
			c4.58-0.56,7.9-0.97,10.42-0.97c6.61,0,6.96,2.11,7.69,18.66c0.11,2.44,0.23,5.21,0.39,8.28l0.04,0.73
			c0.96,17.89,1.95,36.38-1.93,54.37c-5.94,27.5-21.98,43.88-44,44.96c-1.1,0.05-2.22,0.08-3.33,0.08
			c-27.53,0-52.19-16.68-59.95-40.56c-8.74-26.88-11.77-55.09-14.33-84.03c-0.8-9.06-3.88-12.6-10.97-12.6
			c-1.41,0-3.01,0.14-4.91,0.43c-14.58,2.23-29.59,3.46-44.1,4.64l-4.18,0.34c-4.32,0.35-7.11,1.46-8.76,3.47
			c-1.58,1.93-2.14,4.75-1.69,8.61c1.53,13.22,2.87,26.69,4.18,39.72c0.74,7.36,1.5,14.96,2.28,22.44c0.17,1.61,0.6,3.18,1.01,4.7
			c0.2,0.72,0.4,1.46,0.57,2.19c1.82,7.9,6.4,9.56,9.93,9.56c0.52,0,1.07-0.04,1.63-0.11c3.75-0.48,8.18-2.87,7.97-11.5
			c-0.08-3.26-0.15-6.53-0.21-9.8c-0.25-12.37-0.51-25.17-1.6-37.7c-0.63-7.21,1.28-9.87,7.56-10.54l3.9-0.41
			c7.77-0.82,15.81-1.67,23.71-2.62c0.68-0.08,1.33-0.12,1.93-0.12c4.69,0,6.79,2.45,7.03,8.18c0.33,7.85,0.83,15.83,1.23,22.25
			c0.15,2.46,0.3,4.74,0.41,6.77c-0.01,2.03-0.01,4.02-0.01,5.97c0,14.69,0.01,27.38-2.95,39.71
			c-6.71,27.96-22.75,42.72-47.69,43.89c-0.72,0.03-1.45,0.05-2.18,0.05c-11.8,0-24.31-4.29-35.23-12.09
			c-10.99-7.85-18.86-18.2-22.16-29.14c-7.01-23.24-11.28-48.52-13.42-79.53c-0.89-12.92-1.11-15.99-11.8-15.99
			c-1.58,0-3.39,0.05-5.76,0.12c-0.15,0-0.29,0.01-0.43,0.01c-3.93,0-6.06-1.64-6.89-5.33c-1.13-4.98-2.23-10.06-3.29-14.98
			c-1.5-6.96-3.05-14.15-4.73-21.19c-1.2-5.03,1.33-6.22,5.89-7.89c0.27-0.1,0.55-0.2,0.83-0.3c21.65-8.06,22.03-8.65,20.49-31.38
			l-0.06-0.84c-0.74-10.97-1.28-22.14-1.8-32.94c-0.52-10.8-1.05-21.97-1.8-32.95c-0.25-3.71,0.26-6.12,1.62-7.59
			c1.27-1.38,3.47-2.08,6.72-2.13c7.74-0.12,15.59-0.4,23.19-0.66c4.16-0.14,8.45-0.29,12.68-0.42c0.14,0,0.28-0.01,0.41-0.01
			c5.57,0,6.15,3.29,6.44,8.72c0.03,0.56,0.06,1.12,0.1,1.65c0.31,4.05,0.62,8.1,0.93,12.15c1.54,19.85,3.12,40.38,3.86,60.59
			c0.33,9.01,2.53,15.02,12.18,15.02c1.24,0,2.58-0.09,4.08-0.28c9.85-1.25,19.96-1.84,29.75-2.41c4.61-0.27,9.37-0.55,14.05-0.89
			c5.82-0.43,9.66-1.96,12.09-4.81c2.41-2.84,3.32-6.98,2.81-12.68c-1.09-12.03-1.78-24.3-2.44-36.17
			c-0.71-12.76-1.45-25.96-2.69-38.9c-0.49-5.08,0.14-8.38,1.98-10.41c1.79-1.97,4.98-2.89,10.02-2.89l0.22,0
			c2.22,0.01,4.43,0.02,6.65,0.02c6.69,0,14.58-0.09,22.37-0.78C681.32,19.85,681.97,19.82,682.56,19.82 M682.56,18.74
			c-0.63,0-1.3,0.03-2.01,0.09c-7.39,0.65-14.84,0.78-22.28,0.78c-2.22,0-4.43-0.01-6.65-0.02c-0.08,0-0.15,0-0.23,0
			c-9.83,0-14.15,3.29-13.07,14.48c2.4,24.95,2.87,50.09,5.13,75.06c1.03,11.35-3.8,15.59-13.9,16.33
			c-14.62,1.07-29.33,1.46-43.85,3.3c-1.44,0.18-2.75,0.28-3.95,0.28c-8.23,0-10.76-4.42-11.11-13.98
			c-0.89-24.29-2.96-48.53-4.8-72.78c-0.38-4.99,0.21-11.36-7.61-11.36c-0.14,0-0.29,0-0.44,0.01c-11.95,0.35-23.9,0.89-35.86,1.08
			c-7.47,0.12-9.89,3.44-9.39,10.87c1.49,21.94,2.11,43.95,3.6,65.89c1.57,23.1,1.84,23.1-19.73,31.14
			c-4.44,1.65-8.96,2.83-7.39,9.45c2.86,12.01,5.28,24.12,8.01,36.16c0.95,4.19,3.56,6.16,7.94,6.16c0.15,0,0.31,0,0.46-0.01
			c2.21-0.07,4.11-0.12,5.73-0.12c9.62,0,9.82,1.95,10.73,15c1.87,27.04,5.62,53.77,13.47,79.77c7.01,23.22,33.7,42,58.42,42
			c0.75,0,1.49-0.02,2.23-0.05c25.5-1.19,41.89-16.39,48.68-44.71c3.38-14.08,2.93-28.35,2.99-45.96
			c-0.43-7.47-1.19-18.24-1.64-29.03c-0.26-6.02-2.62-9.21-8.1-9.21c-0.64,0-1.33,0.04-2.06,0.13c-9.19,1.11-18.39,2.06-27.59,3.03
			c-7.21,0.76-9.17,4.22-8.52,11.7c1.37,15.74,1.42,31.61,1.81,47.43c0.12,4.93-1.32,9.67-7.03,10.41c-0.52,0.07-1.01,0.1-1.49,0.1
			c-5.06,0-7.72-3.68-8.88-8.73c-0.52-2.25-1.31-4.48-1.55-6.76c-2.17-20.72-4.07-41.48-6.46-62.17c-0.89-7.68,2.31-10.3,9.47-10.88
			c16.15-1.32,32.35-2.54,48.35-4.99c1.77-0.27,3.35-0.42,4.75-0.42c6.41,0,9.14,3.09,9.9,11.62c2.52,28.44,5.47,56.89,14.38,84.27
			c7.96,24.48,33.09,41.31,60.97,41.31c1.12,0,2.25-0.03,3.38-0.08c22.5-1.1,38.99-18,45-45.8c3.97-18.37,2.91-36.92,1.92-55.38
			c-1.22-22.75-0.03-27.96-9.15-27.96c-4.18,0-10.52,1.09-20.24,2.09c-18.98,1.95-19.04,2.33-17.84,21.05
			c0.86,13.47,1.6,26.96,2.01,40.46c0.16,5.06-2.1,9.14-7.94,9.5c-0.24,0.01-0.48,0.02-0.71,0.02c-4.6,0-7.21-2.92-8.39-7.24
			c-0.91-3.34-1.77-6.75-2.15-10.18c-2.2-19.56-4.06-39.17-6.43-58.71c-0.98-8.07,2.22-11.32,10.02-11.78
			c13.87-0.83,27.7-2.34,41.57-3.08c9.02-0.48,12.23-4.95,11.36-13.48c-1.02-9.98-2.25-19.97-2.6-29.99
			c-0.28-7.99-3.99-11.16-10.82-11.16c-0.54,0-1.09,0.02-1.67,0.06c-13.47,0.89-27.01,1.29-40.4,2.9c-1.39,0.17-2.64,0.26-3.78,0.26
			c-6.57,0-9.19-2.99-9.58-11.56c-1.15-25.43-3.69-50.8-5.42-76.21C691.64,22.17,689.17,18.74,682.56,18.74L682.56,18.74z"/>
	</g>
	<g>
		<linearGradient id="SVGID_3_" gradientUnits="userSpaceOnUse" x1="280.3183" y1="498.8535" x2="462.191" y2="498.8535">
			<stop  offset="0" style="stop-color:#FF00C8"/>
			<stop  offset="0.2988" style="stop-color:#FC00C9"/>
			<stop  offset="0.483" style="stop-color:#F400CE"/>
			<stop  offset="0.6361" style="stop-color:#E500D6"/>
			<stop  offset="0.7722" style="stop-color:#D100E1"/>
			<stop  offset="0.8959" style="stop-color:#B700EF"/>
			<stop  offset="1" style="stop-color:#9A00FF"/>
		</linearGradient>
		<path class="st2" d="M363.66,525.35c-43.47,0.42-68.64-14.9-79.85-52.11c-10.14-33.65,2.84-62.79,26.1-86.45
			c26.37-26.81,59.17-38.23,97.16-32.28c7.41,1.16,14.2,3.78,20.55,7.41c6.1,3.48,12.2,6.22,19.3,7.24
			c10.84,1.56,16.41,8.13,15.07,19.38c-3.42,28.72-7.07,57.41-10.49,86.13c-3.14,26.41-2.49,53.19-7.81,79.41
			c-4.03,19.89-11.65,38.41-21.4,56.01c-14.89,26.89-39.19,38.65-67.52,33.45c-28.32-5.2-47.9-26.09-51.54-56.44
			c-1.32-11.03-0.66-22.35-0.38-33.52c0.18-7.27,3.72-11.19,11.87-10.47c10.75,0.96,21.57,1.24,32.37,1.56
			c5.81,0.17,8.39,2.8,8.25,8.6c-0.19,8.49-0.26,16.98-0.17,25.47c0.09,8.66,4.68,13.98,13.17,14.79
			c8.19,0.79,11.35-5.16,13.19-11.95c4.14-15.29,7.15-30.78,8.98-46.54c0.91-7.9-1.9-10.47-9.51-9.79
			C375.27,525.76,369.44,525.35,363.66,525.35z M373.28,475.14c8.41-1.27,20,1.38,22.57-9.53c3.89-16.43,5.19-33.49,7.3-50.32
			c0.64-5.07-2.05-8.32-7.45-7.88c-20.64,1.7-39.82,7.7-53.01,24.51c-13.2,16.83-6.88,34.27,13.46,40.46
			C361.69,474.06,367.31,475.61,373.28,475.14z"/>
		<linearGradient id="SVGID_4_" gradientUnits="userSpaceOnUse" x1="280.3183" y1="498.8535" x2="462.1909" y2="498.8535">
			<stop  offset="0" style="stop-color:#FF00C8"/>
			<stop  offset="0.183" style="stop-color:#FC00C9"/>
			<stop  offset="0.324" style="stop-color:#F200CB"/>
			<stop  offset="0.4509" style="stop-color:#E200D0"/>
			<stop  offset="0.5697" style="stop-color:#CB00D5"/>
			<stop  offset="0.6827" style="stop-color:#AD00DD"/>
			<stop  offset="0.7914" style="stop-color:#8800E7"/>
			<stop  offset="0.8957" style="stop-color:#5C00F2"/>
			<stop  offset="0.9958" style="stop-color:#2B00FE"/>
			<stop  offset="1" style="stop-color:#2900FF"/>
		</linearGradient>
		<path class="st3" d="M387.83,354.04c6.19,0,12.61,0.51,19.07,1.52c6.89,1.08,13.49,3.46,20.19,7.29
			c7.45,4.25,13.34,6.46,19.68,7.37c10.5,1.51,15.4,7.8,14.16,18.19c-1.71,14.41-3.52,29.05-5.26,43.2
			c-1.73,14.07-3.52,28.61-5.23,42.93c-1.23,10.3-1.89,20.81-2.52,30.97c-1,15.93-2.04,32.39-5.27,48.35
			c-3.71,18.33-10.68,36.55-21.29,55.7c-6.14,11.09-13.94,19.66-23.16,25.46c-9.11,5.73-19.4,8.64-30.6,8.64
			c-4.1,0-8.35-0.4-12.63-1.18c-28.18-5.17-47.12-25.92-50.66-55.51c-1.1-9.15-0.81-18.67-0.53-27.88c0.06-1.83,0.11-3.66,0.16-5.48
			c0.16-6.49,3-9.51,8.95-9.51c0.56,0,1.15,0.03,1.75,0.08c10.06,0.9,20.33,1.2,30.26,1.5l2.17,0.06c5.24,0.16,7.33,2.33,7.21,7.5
			c-0.2,8.69-0.25,17.27-0.17,25.5c0.1,9.36,5.12,14.98,14.14,15.85c0.52,0.05,1.03,0.08,1.52,0.08c8.27,0,11.19-6.85,12.8-12.82
			c4.18-15.42,7.21-31.14,9.01-46.7c0.48-4.17-0.04-6.96-1.64-8.75c-1.4-1.57-3.62-2.33-6.77-2.33c-0.69,0-1.45,0.04-2.26,0.11
			c-1.94,0.17-4.02,0.25-6.55,0.25c-1.77,0-3.58-0.04-5.33-0.08c-1.76-0.04-3.58-0.08-5.39-0.08c0,0,0,0,0,0
			c-0.58,0.01-1.16,0.01-1.73,0.01c-42.61,0-66.38-15.84-77.09-51.35c-4.74-15.72-4.57-31.3,0.51-46.32
			c4.55-13.46,13.07-26.61,25.33-39.07C332.53,365.31,358.49,354.04,387.83,354.04 M371.08,476.29c0.77,0,1.53-0.03,2.28-0.09
			l0.04,0l0.04-0.01c1.84-0.28,3.81-0.36,5.91-0.45c7.2-0.31,15.36-0.65,17.55-9.89c2.97-12.58,4.46-25.69,5.91-38.38
			c0.45-3.96,0.91-8.05,1.42-12.06c0.35-2.81-0.23-5.15-1.67-6.79c-1.35-1.53-3.38-2.34-5.89-2.34c-0.34,0-0.69,0.01-1.05,0.04
			c-24.96,2.05-42.04,9.97-53.76,24.92c-6.43,8.2-8.62,16.98-6.18,24.75c2.53,8.03,9.69,14.21,20.17,17.4
			C360.86,474.93,365.79,476.29,371.08,476.29 M387.83,352.97c-29.9,0-56.12,11.64-77.92,33.82c-23.27,23.66-36.25,52.8-26.1,86.45
			c11.06,36.7,35.7,52.11,78.11,52.11c0.57,0,1.16,0,1.74-0.01c3.57,0,7.14,0.16,10.71,0.16c2.22,0,4.44-0.06,6.64-0.26
			c0.77-0.07,1.49-0.1,2.16-0.1c5.98,0,8.17,2.79,7.35,9.89c-1.82,15.76-4.84,31.25-8.98,46.54c-1.73,6.39-4.62,12.02-11.77,12.02
			c-0.46,0-0.93-0.02-1.42-0.07c-8.49-0.82-13.08-6.14-13.17-14.79c-0.09-8.49-0.02-16.98,0.17-25.47c0.13-5.79-2.45-8.42-8.25-8.6
			c-10.8-0.32-21.62-0.6-32.37-1.56c-0.64-0.06-1.26-0.09-1.85-0.09c-6.84,0-9.86,3.86-10.03,10.55
			c-0.28,11.17-0.94,22.48,0.38,33.52c3.64,30.34,23.21,51.24,51.54,56.44c4.38,0.8,8.66,1.2,12.83,1.2
			c22.79,0,42.1-11.92,54.69-34.65c9.75-17.6,17.37-36.11,21.4-56.01c5.31-26.22,4.67-52.99,7.81-79.41
			c3.42-28.72,7.07-57.41,10.49-86.13c1.34-11.25-4.23-17.82-15.07-19.38c-7.1-1.02-13.2-3.76-19.3-7.24
			c-6.36-3.63-13.14-6.25-20.55-7.41C400.5,353.48,394.09,352.97,387.83,352.97L387.83,352.97z M371.08,475.22
			c-5.16,0-10.08-1.37-14.92-2.85c-20.34-6.19-26.66-23.63-13.46-40.46c13.19-16.81,32.37-22.81,53.01-24.51
			c0.33-0.03,0.65-0.04,0.96-0.04c4.76,0,7.09,3.16,6.49,7.92c-2.11,16.83-3.42,33.89-7.3,50.32c-2.58,10.91-14.17,8.26-22.57,9.53
			C372.54,475.19,371.81,475.22,371.08,475.22L371.08,475.22z"/>
	</g>
	<g>
		<linearGradient id="SVGID_5_" gradientUnits="userSpaceOnUse" x1="230.6205" y1="186.4193" x2="384.4504" y2="186.4193">
			<stop  offset="0" style="stop-color:#FF00C8"/>
			<stop  offset="0.2988" style="stop-color:#FC00C9"/>
			<stop  offset="0.483" style="stop-color:#F400CE"/>
			<stop  offset="0.6361" style="stop-color:#E500D6"/>
			<stop  offset="0.7722" style="stop-color:#D100E1"/>
			<stop  offset="0.8959" style="stop-color:#B700EF"/>
			<stop  offset="1" style="stop-color:#9A00FF"/>
		</linearGradient>
		<path class="st4" d="M230.7,168.29c0-26.21,0.19-52.42-0.08-78.62c-0.15-14.37,6.42-23.82,18.82-30.52
			c25.37-13.71,50.93-16.36,79.13-7.96c37.44,11.15,57.46,69.98,29.21,103.92c-7.22,8.68-6.84,13.21,0.73,21.69
			c22.8,25.51,30.43,56.77,23.42,89.53c-6.17,28.81-29.78,42.75-56.1,51.52c-9.88,3.29-20.28,3.96-30.79,4.31
			c-13.69,0.45-27.37,2.15-40.96,4.02c-10.08,1.38-13.59-2.68-14.8-12.38C233.29,265.45,233.3,216.86,230.7,168.29z M280.62,234.05
			c0.17,0,0.34,0,0.52,0c0,7.3,0.03,14.6-0.01,21.9c-0.04,7.39,4.11,12.84,9.84,15.96c13.52,7.38,41.6-7.3,42.45-22.63
			c0.91-16.64-3.97-32.02-16.78-43.72c-8.62-7.87-18.14-5.81-28.09-2.28c-9.66,3.42-7.83,10.98-7.91,18.09
			C280.58,225.59,280.62,229.82,280.62,234.05z M279.16,119.64c0.47,8.12,1.08,16.96,1.47,25.82c0.26,6.02,3.21,7.95,9.03,7.3
			c19.76-2.19,35.19-23.66,30.73-43.08c-2.61-11.35-14.69-18.13-28.05-17c-13.89,1.18-14.18,10.13-13.2,20.43
			C279.32,115.02,279.16,116.96,279.16,119.64z"/>
		<linearGradient id="SVGID_6_" gradientUnits="userSpaceOnUse" x1="230.6205" y1="186.4193" x2="384.4504" y2="186.4193">
			<stop  offset="0" style="stop-color:#FF00C8"/>
			<stop  offset="0.183" style="stop-color:#FC00C9"/>
			<stop  offset="0.324" style="stop-color:#F200CB"/>
			<stop  offset="0.4509" style="stop-color:#E200D0"/>
			<stop  offset="0.5697" style="stop-color:#CB00D5"/>
			<stop  offset="0.6827" style="stop-color:#AD00DD"/>
			<stop  offset="0.7914" style="stop-color:#8800E7"/>
			<stop  offset="0.8957" style="stop-color:#5C00F2"/>
			<stop  offset="0.9958" style="stop-color:#2B00FE"/>
			<stop  offset="1" style="stop-color:#2900FF"/>
		</linearGradient>
		<path class="st5" d="M297.44,46.4v1.07h0c10.03,0,20.11,1.55,30.83,4.74c17.36,5.17,32.12,21.53,38.52,42.71
			c6.62,21.91,2.95,44.15-9.83,59.5c-7.44,8.93-7.27,14.11,0.76,23.09c22.24,24.88,30.25,55.51,23.17,88.59
			c-2.82,13.18-9.4,23.87-20.13,32.67c-8.7,7.14-20.23,13.04-35.27,18.05c-10,3.33-20.55,3.93-30.48,4.26
			c-14.2,0.47-28.65,2.32-41.07,4.03c-1.22,0.17-2.36,0.25-3.37,0.25c-6.39,0-9.15-3.17-10.21-11.7
			c-4.18-33.66-5.46-68.03-6.7-101.28c-0.54-14.46-1.1-29.41-1.88-44.11c0-7.7,0.02-15.41,0.03-23.11
			c0.04-18.19,0.08-36.99-0.11-55.49c-0.14-13.36,5.67-22.76,18.26-29.56c15.71-8.49,31.25-12.62,47.49-12.62L297.44,46.4
			 M287.67,153.95c0.65,0,1.36-0.04,2.11-0.12c9.78-1.08,19-6.78,25.28-15.63c6.23-8.78,8.55-19.26,6.37-28.75
			c-2.47-10.74-12.99-17.95-26.19-17.95c-0.99,0-2,0.04-2.99,0.13c-5.36,0.46-9.11,2.05-11.46,4.88c-3.56,4.27-3.3,10.6-2.72,16.72
			c0.11,1.2,0.09,2.46,0.06,3.92c-0.02,0.77-0.03,1.6-0.03,2.51v0.03l0,0.03c0.14,2.38,0.29,4.83,0.44,7.32
			c0.37,6.02,0.75,12.24,1.02,18.48C279.81,151.18,282.46,153.95,287.67,153.95 M279.55,235.12l0.52,0c0,1.87,0,3.75,0.01,5.62
			c0.01,4.98,0.01,10.13-0.02,15.2c-0.04,7.12,3.75,13.28,10.39,16.91c2.55,1.39,5.64,2.1,9.18,2.1c14.6,0,34.13-12.42,34.85-25.61
			c0.99-18.02-4.93-33.44-17.13-44.57c-4.2-3.83-8.91-5.69-14.41-5.69c-5.07,0-10.31,1.61-14.76,3.19
			c-9.02,3.2-8.83,10.04-8.67,16.08c0.03,0.99,0.05,2.02,0.04,3.01c-0.03,2.92-0.02,5.89-0.02,8.76c0,1.31,0.01,2.62,0.01,3.93
			V235.12 M297.44,46.4c-16.46,0-32.26,4.25-47.99,12.75c-12.4,6.7-18.97,16.15-18.82,30.52c0.27,26.2,0.08,52.41,0.08,78.62
			c2.6,48.56,2.59,97.15,8.59,145.5c1.05,8.47,3.87,12.64,11.28,12.64c1.07,0,2.24-0.09,3.52-0.26c13.59-1.86,27.27-3.57,40.96-4.02
			c10.51-0.35,20.91-1.02,30.79-4.31c26.32-8.77,49.94-22.7,56.1-51.52c7.01-32.76-0.61-64.02-23.42-89.53
			c-7.57-8.47-7.96-13.01-0.73-21.69c28.25-33.94,8.22-92.77-29.21-103.92C317.86,48,307.53,46.4,297.44,46.4L297.44,46.4z
			 M287.67,152.88c-4.51,0-6.81-2.13-7.05-7.42c-0.39-8.85-1-17.7-1.47-25.82c0-2.67,0.15-4.61-0.03-6.53
			c-0.97-10.3-0.68-19.24,13.2-20.43c0.98-0.08,1.94-0.12,2.9-0.12c12.17,0,22.73,6.6,25.15,17.12
			c4.46,19.41-10.96,40.89-30.73,43.08C288.96,152.83,288.3,152.88,287.67,152.88L287.67,152.88z M280.62,234.05
			c0-4.23-0.04-8.46,0.01-12.68c0.08-7.12-1.75-14.67,7.91-18.09c4.92-1.75,9.74-3.13,14.4-3.13c4.75,0,9.34,1.44,13.69,5.41
			c12.82,11.7,17.7,27.08,16.78,43.72c-0.69,12.52-19.53,24.6-33.78,24.6c-3.21,0-6.18-0.61-8.66-1.97
			c-5.72-3.12-9.88-8.57-9.84-15.96c0.04-7.3,0.01-14.6,0.01-21.9C280.96,234.05,280.79,234.05,280.62,234.05L280.62,234.05z"/>
	</g>
	<g>
		<linearGradient id="SVGID_7_" gradientUnits="userSpaceOnUse" x1="3.2144" y1="427.6483" x2="172.3082" y2="427.6483">
			<stop  offset="0" style="stop-color:#FF00C8"/>
			<stop  offset="0.2988" style="stop-color:#FC00C9"/>
			<stop  offset="0.483" style="stop-color:#F400CE"/>
			<stop  offset="0.6361" style="stop-color:#E500D6"/>
			<stop  offset="0.7722" style="stop-color:#D100E1"/>
			<stop  offset="0.8959" style="stop-color:#B700EF"/>
			<stop  offset="1" style="stop-color:#9A00FF"/>
		</linearGradient>
		<path class="st6" d="M171.89,287.64c0.69,32.45,3.71,26.55-26.2,31.9c-2.28,0.41-4.54,0.88-6.82,1.29
			c-26.03,4.69-25.85,4.64-20.03,29.87c9.03,39.18,13.28,79.11,17.76,118.96c4.01,35.63,9.43,71.1,11.96,106.91
			c0.82,11.55-2.62,17.18-14.58,17.81c-9.61,0.51-19.19,2.03-28.69,3.67c-8.88,1.53-12.52-2.1-14.07-10.66
			c-6.38-35.36-9.01-71.16-13.53-106.73c-5.64-44.36-9.17-89.08-19.39-132.79c-3.46-14.81-4.18-15.13-18.66-12.39
			c-29.03,5.48-24.02,9.88-32.26-20.47c-7.82-28.83-6.89-30.87,22.67-36.65c37.11-7.26,74.37-13.84,111.73-19.63
			C170.12,254.33,170.92,255.74,171.89,287.64z"/>
		<linearGradient id="SVGID_8_" gradientUnits="userSpaceOnUse" x1="3.2144" y1="427.6483" x2="172.3082" y2="427.6483">
			<stop  offset="0" style="stop-color:#FF00C8"/>
			<stop  offset="0.183" style="stop-color:#FC00C9"/>
			<stop  offset="0.324" style="stop-color:#F200CB"/>
			<stop  offset="0.4509" style="stop-color:#E200D0"/>
			<stop  offset="0.5697" style="stop-color:#CB00D5"/>
			<stop  offset="0.6827" style="stop-color:#AD00DD"/>
			<stop  offset="0.7914" style="stop-color:#8800E7"/>
			<stop  offset="0.8957" style="stop-color:#5C00F2"/>
			<stop  offset="0.9958" style="stop-color:#2B00FE"/>
			<stop  offset="1" style="stop-color:#2900FF"/>
		</linearGradient>
		<path class="st7" d="M158.21,256.9v1.07c11.28,0,11.88,5.67,12.6,29.68c0.07,3.13,0.16,5.91,0.23,8.36
			c0.3,9.45,0.45,14.19-1.27,16.62c-1.67,2.35-5.56,2.93-13.3,4.08c-2.97,0.44-6.67,0.99-10.97,1.76c-1.17,0.21-2.33,0.44-3.5,0.66
			c-1.11,0.22-2.22,0.43-3.36,0.64c-13.27,2.39-19.92,3.59-22.65,7.71c-2.68,4.06-1.23,10.37,1.67,22.93l0.12,0.52
			c8.58,37.21,12.91,75.76,17.09,113.03l0.65,5.81c1.32,11.7,2.81,23.57,4.25,35.06c2.95,23.49,6.01,47.78,7.71,71.81
			c0.43,6.14-0.41,10.19-2.65,12.73c-2.1,2.37-5.67,3.66-10.92,3.94c-9.93,0.52-19.68,2.11-28.82,3.69
			c-1.25,0.22-2.41,0.33-3.45,0.33c-5.37,0-8.09-2.93-9.38-10.12c-4.23-23.45-6.85-47.5-9.39-70.77
			c-1.28-11.78-2.61-23.95-4.13-35.91c-1.36-10.67-2.61-21.55-3.83-32.07c-3.84-33.23-7.81-67.58-15.58-100.83
			c-2.42-10.35-3.66-14.55-10.17-14.55c-2.4,0-5.55,0.56-9.73,1.35c-4.26,0.8-7.85,1.6-10.73,2.24c-4.41,0.98-7.59,1.68-9.79,1.68
			c-4.27,0-5.07-2.55-8.14-14.57c-0.67-2.62-1.43-5.6-2.36-9.05c-3.93-14.5-5.49-21.81-2.77-26.18c2.63-4.23,9.41-6.16,24.61-9.14
			c37.58-7.35,75.16-13.96,111.69-19.62c7.39-1.15,12.42-1.81,16.25-1.81L158.21,256.9 M158.21,256.9c-4.06,0-9.39,0.73-16.42,1.82
			c-37.36,5.8-74.63,12.37-111.73,19.63c-29.56,5.79-30.49,7.83-22.67,36.65c5.17,19.04,5.12,24.41,11.54,24.41
			c3.81,0,9.9-1.89,20.72-3.94c4.2-0.79,7.25-1.33,9.53-1.33c5.59,0,6.67,3.21,9.13,13.72c10.22,43.7,13.74,88.42,19.39,132.79
			c4.53,35.57,7.16,71.37,13.53,106.73c1.31,7.28,4.14,11,10.44,11c1.1,0,2.31-0.11,3.63-0.34c9.5-1.64,19.09-3.16,28.69-3.67
			c11.97-0.63,15.4-6.27,14.58-17.81c-2.53-35.81-7.95-71.28-11.96-106.91c-4.48-39.85-8.73-79.78-17.76-118.96
			c-5.82-25.23-6-25.19,20.03-29.87c2.28-0.41,4.54-0.89,6.82-1.29c29.91-5.34,26.89,0.55,26.2-31.9
			C171.16,263.65,170.53,256.9,158.21,256.9L158.21,256.9z"/>
	</g>
	<g>
		<linearGradient id="SVGID_9_" gradientUnits="userSpaceOnUse" x1="596.4882" y1="467.8296" x2="742.0984" y2="467.8296">
			<stop  offset="0" style="stop-color:#FF00C8"/>
			<stop  offset="0.2988" style="stop-color:#FC00C9"/>
			<stop  offset="0.483" style="stop-color:#F400CE"/>
			<stop  offset="0.6361" style="stop-color:#E500D6"/>
			<stop  offset="0.7722" style="stop-color:#D100E1"/>
			<stop  offset="0.8959" style="stop-color:#B700EF"/>
			<stop  offset="1" style="stop-color:#9A00FF"/>
		</linearGradient>
		<path class="st8" d="M678.93,373.06c0,12.73,0.31,25.47-0.13,38.19c-0.22,6.33,1.88,9.38,8.23,9.61
			c12.72,0.45,25.44,1.04,38.16,1.52c10.55,0.4,16.49,4.41,15.01,16.37c-1.03,8.38-0.75,16.97-0.58,25.45
			c0.17,8.6-3.87,11.55-12.11,11.19c-13.49-0.59-27.03-0.24-40.52-0.99c-7.18-0.4-11.16,1.57-11.17,9.16
			c-0.04,21.22-0.34,42.45,0.05,63.67c0.1,5.62,1.35,12.39,9.35,12.24c8.03-0.15,8.45-6.86,8.85-12.6c0.94-13.47,2-26.97,1.95-40.46
			c-0.04-9.32,4.23-12.34,12.58-12.14c4.24,0.1,8.49-0.05,12.74-0.07c21.56-0.08,21.95-0.04,20.07,21.93
			c-1.64,19.16-1.53,38.58-7.83,57.18c-9.85,29.05-27.67,42.54-54.32,40.53c-25.31-1.91-48.6-24.48-52.85-50.74
			c-4.21-26.04-4.87-52.25-4.21-78.52c0.21-8.27-0.78-13.92-11.18-11.3c-6.78,1.7-10.18-1.57-10.87-8.26
			c-1.07-10.36-1.9-20.77-3.42-31.07c-1.1-7.47,1.98-10.76,9.02-11.47c2.3-0.23,4.55-1.07,6.84-1.16
			c10.96-0.41,13.83-6.65,14.07-16.74c0.56-23.14,2.7-46.25,2.96-69.39c0.13-11.62,4.49-14.84,15.27-13.14
			c8.75,1.38,17.66,2.08,26.52,2.28c8.25,0.19,10.51,4.13,10.26,11.72c-0.41,12.32-0.11,24.67-0.11,37
			C680.67,373.05,679.8,373.06,678.93,373.06z"/>
		<linearGradient id="SVGID_10_" gradientUnits="userSpaceOnUse" x1="596.4882" y1="467.8296" x2="742.0987" y2="467.8296">
			<stop  offset="0" style="stop-color:#FF00C8"/>
			<stop  offset="0.183" style="stop-color:#FC00C9"/>
			<stop  offset="0.324" style="stop-color:#F200CB"/>
			<stop  offset="0.4509" style="stop-color:#E200D0"/>
			<stop  offset="0.5697" style="stop-color:#CB00D5"/>
			<stop  offset="0.6827" style="stop-color:#AD00DD"/>
			<stop  offset="0.7914" style="stop-color:#8800E7"/>
			<stop  offset="0.8957" style="stop-color:#5C00F2"/>
			<stop  offset="0.9958" style="stop-color:#2B00FE"/>
			<stop  offset="1" style="stop-color:#2900FF"/>
		</linearGradient>
		<path class="st9" d="M640.09,321.63v1.07c1.35,0,2.86,0.13,4.61,0.41c8.31,1.31,17.28,2.08,26.66,2.29
			c3.43,0.08,5.79,0.84,7.2,2.33c1.51,1.59,2.14,4.22,2.01,8.28c-0.29,8.69-0.23,17.52-0.16,26.06c0.02,3.25,0.05,6.6,0.05,9.91
			l-0.42,0l-1.11,0l-1.07,0v1.07c0,3.72,0.03,7.51,0.05,11.17c0.06,8.85,0.13,18.01-0.19,26.98c-0.25,7.18,2.6,10.48,9.26,10.72
			c7.1,0.25,14.33,0.55,21.31,0.84c5.61,0.23,11.23,0.47,16.84,0.68c5.8,0.22,9.67,1.57,11.85,4.12c2.06,2.42,2.76,6.03,2.14,11.05
			c-0.97,7.82-0.8,15.88-0.63,23.67l0.04,1.94c0.07,3.67-0.65,6.23-2.21,7.82c-1.52,1.55-3.99,2.31-7.54,2.31
			c-0.4,0-0.82-0.01-1.24-0.03c-6.24-0.27-12.59-0.35-18.73-0.42c-7.15-0.08-14.54-0.17-21.78-0.57c-0.6-0.03-1.18-0.05-1.72-0.05
			c-7.3,0-10.57,3.17-10.58,10.28c-0.01,5.76-0.04,11.52-0.07,17.27c-0.08,15.21-0.16,30.94,0.12,46.41
			c0.06,3.29,0.24,13.29,10.16,13.29c0.09,0,0.19,0,0.29,0c8.96-0.17,9.5-7.86,9.89-13.48l0.01-0.12l0.28-3.93
			c0.85-11.99,1.72-24.39,1.67-36.61c-0.02-4.06,0.81-6.87,2.53-8.6c1.69-1.69,4.3-2.48,8.23-2.48c0.24,0,0.48,0,0.72,0.01
			c0.97,0.02,1.99,0.03,3.12,0.03c1.73,0,3.48-0.03,5.17-0.05c1.49-0.02,2.98-0.05,4.48-0.05c1.19,0,2.31-0.01,3.37-0.01
			c8.82,0,12.8,0.33,14.69,2.38c2.2,2.4,1.86,7.66,0.94,18.38c-0.35,4.12-0.63,8.32-0.9,12.38c-0.97,14.78-1.98,30.07-6.88,44.54
			c-9.12,26.92-24.9,40-48.23,40c-1.62,0-3.3-0.06-5-0.19c-11.97-0.9-23.92-6.57-33.66-15.94c-9.72-9.36-16.19-21.4-18.21-33.9
			c-3.64-22.52-4.97-47.41-4.2-78.32c0.13-5.05-0.23-8.87-2.41-11.1c-1.26-1.29-3.06-1.95-5.36-1.95c-1.38,0-2.93,0.22-4.74,0.68
			c-1.09,0.27-2.1,0.41-3.01,0.41c-3.86,0-6-2.53-6.53-7.74c-0.27-2.6-0.52-5.21-0.77-7.82c-0.74-7.65-1.51-15.56-2.65-23.3
			c-0.49-3.32-0.11-5.72,1.14-7.33c1.26-1.62,3.52-2.57,6.92-2.91c1.09-0.11,2.16-0.35,3.2-0.58c1.24-0.28,2.41-0.53,3.58-0.58
			c7.26-0.27,14.74-2.59,15.1-17.79c0.26-10.57,0.85-21.32,1.43-31.72c0.68-12.35,1.39-25.11,1.54-37.69
			c0.09-7.72,1.7-12.51,9.42-12.51V321.63 M640.09,321.63c-7.31,0-10.38,3.84-10.49,13.57c-0.27,23.14-2.4,46.25-2.96,69.39
			c-0.24,10.09-3.11,16.34-14.07,16.74c-2.29,0.09-4.55,0.93-6.84,1.16c-7.04,0.71-10.12,4-9.02,11.47
			c1.52,10.3,2.35,20.7,3.42,31.07c0.57,5.51,2.98,8.7,7.6,8.7c0.99,0,2.08-0.15,3.27-0.45c1.75-0.44,3.23-0.65,4.48-0.65
			c6.21,0,6.87,5.06,6.7,11.95c-0.66,26.27,0,52.48,4.21,78.52c4.24,26.26,27.54,48.83,52.85,50.74c1.73,0.13,3.42,0.2,5.08,0.2
			c23.85,0,40.04-13.56,49.24-40.73c6.3-18.6,6.19-38.02,7.83-57.18c1.78-20.76,1.53-21.93-16.7-21.93c-1.06,0-2.19,0-3.37,0.01
			c-3.21,0.01-6.43,0.1-9.64,0.1c-1.03,0-2.07-0.01-3.1-0.03c-0.25-0.01-0.5-0.01-0.75-0.01c-7.86,0-11.87,3.12-11.83,12.15
			c0.06,13.49-1.01,26.99-1.95,40.46c-0.4,5.74-0.81,12.44-8.85,12.6c-0.09,0-0.18,0-0.26,0c-7.76,0-8.98-6.68-9.08-12.24
			c-0.39-21.22-0.09-42.44-0.05-63.67c0.01-6.98,3.38-9.21,9.51-9.21c0.53,0,1.09,0.02,1.66,0.05c13.48,0.75,27.02,0.4,40.52,0.99
			c0.44,0.02,0.87,0.03,1.29,0.03c7.37,0,10.99-3.08,10.82-11.22c-0.17-8.48-0.45-17.07,0.58-25.45
			c1.48-11.96-4.46-15.97-15.01-16.37c-12.72-0.48-25.44-1.07-38.16-1.52c-6.35-0.23-8.45-3.28-8.23-9.61
			c0.45-12.72,0.13-25.46,0.13-38.19c0.87,0,1.73-0.01,2.6-0.01c0-12.33-0.3-24.68,0.11-37c0.25-7.59-2.01-11.53-10.26-11.72
			c-8.86-0.2-17.77-0.9-26.52-2.28C643.11,321.77,641.52,321.63,640.09,321.63L640.09,321.63z"/>
	</g>
	<g>
		<linearGradient id="SVGID_11_" gradientUnits="userSpaceOnUse" x1="739.7031" y1="449.2797" x2="898.9391" y2="449.2797">
			<stop  offset="0" style="stop-color:#FF00C8"/>
			<stop  offset="0.2988" style="stop-color:#FC00C9"/>
			<stop  offset="0.483" style="stop-color:#F400CE"/>
			<stop  offset="0.6361" style="stop-color:#E500D6"/>
			<stop  offset="0.7722" style="stop-color:#D100E1"/>
			<stop  offset="0.8959" style="stop-color:#B700EF"/>
			<stop  offset="1" style="stop-color:#9A00FF"/>
		</linearGradient>
		<path class="st10" d="M810.41,467.46c3.52,21.29,8.32,44.78,11.12,68.51c3.88,32.89,7.48,29.2-26.93,33.69
			c-18.11,2.37-18.18,1.27-19.91-16.76c-3.51-36.54-12.14-72.24-18.59-108.3c-5.84-32.66-10.63-65.52-16.07-98.26
			c-1.35-8.12,1.35-12.42,9.73-13.48c6.88-0.87,13.66-2.55,20.49-3.79c14.35-2.61,16.48-1.42,19.16,13.41
			c3.7,20.5,7.11,41.06,10.04,61.69c1.1,7.78,3.88,10.12,11.35,7.21c41.58-16.2,67.79,3.57,77.15,46.39
			c5.96,27.25,8.13,54.92,10.89,82.56c0.56,5.57-1.44,8.65-7.34,9.42c-9.18,1.19-18.43,2.34-27.4,4.52
			c-8.89,2.15-11.67-1.59-12.85-9.62c-3.6-24.43-7.61-48.81-11.59-73.18c-0.87-5.32-2.03-10.62-3.5-15.8
			c-1.94-6.84-5.77-12.42-13.81-11.22c-7.98,1.19-11.54,7-11.93,14.82C810.33,461.19,810.41,463.12,810.41,467.46z"/>
		<linearGradient id="SVGID_12_" gradientUnits="userSpaceOnUse" x1="739.7032" y1="449.2797" x2="898.9391" y2="449.2797">
			<stop  offset="0" style="stop-color:#FF00C8"/>
			<stop  offset="0.183" style="stop-color:#FC00C9"/>
			<stop  offset="0.324" style="stop-color:#F200CB"/>
			<stop  offset="0.4509" style="stop-color:#E200D0"/>
			<stop  offset="0.5697" style="stop-color:#CB00D5"/>
			<stop  offset="0.6827" style="stop-color:#AD00DD"/>
			<stop  offset="0.7914" style="stop-color:#8800E7"/>
			<stop  offset="0.8957" style="stop-color:#5C00F2"/>
			<stop  offset="0.9958" style="stop-color:#2B00FE"/>
			<stop  offset="1" style="stop-color:#2900FF"/>
		</linearGradient>
		<path class="st11" d="M779.13,329.05c5.57,0,7.21,2.42,9.23,13.63c4.02,22.26,7.31,42.43,10.03,61.65
			c1.18,8.28,4.49,9.34,7.24,9.34c1.53,0,3.35-0.42,5.56-1.28c9.46-3.69,18.34-5.56,26.37-5.56c24.96,0,42.02,17.7,49.35,51.18
			c5.15,23.57,7.51,47.9,9.79,71.42c0.36,3.67,0.71,7.34,1.08,11.01c0.52,5.2-1.34,7.59-6.41,8.25l-1.2,0.16
			c-8.69,1.13-17.68,2.29-26.32,4.38c-1.56,0.38-2.95,0.57-4.13,0.57c-4.4,0-6.41-2.52-7.41-9.3c-3.4-23.03-7.21-46.39-10.9-68.99
			l-0.69-4.21c-0.89-5.48-2.08-10.83-3.53-15.92c-2.3-8.07-6.58-12.16-12.73-12.16c-0.73,0-1.49,0.06-2.27,0.17
			c-7.83,1.17-12.39,6.79-12.84,15.83c-0.06,1.25-0.05,2.48-0.04,4.35c0.01,1.06,0.02,2.32,0.02,3.9v0.09l0.01,0.09
			c1.06,6.43,2.22,12.94,3.45,19.82c2.81,15.78,5.71,32.1,7.66,48.63c0.41,3.45,0.81,6.49,1.17,9.18
			c1.27,9.61,1.97,14.91-0.05,17.52c-2.12,2.74-7.7,3.41-18.8,4.76c-2.46,0.3-5.25,0.64-8.32,1.04c-4.3,0.56-7.45,0.91-9.88,0.91
			c-7.02,0-7.44-2.36-8.81-16.58l-0.01-0.12c-2.47-25.68-7.54-51.35-12.44-76.18c-2.08-10.55-4.24-21.46-6.16-32.21
			c-3.62-20.21-6.88-40.84-10.04-60.78c-1.94-12.28-3.96-24.98-6.03-37.46c-0.66-3.96-0.28-6.83,1.15-8.75
			c1.4-1.87,3.9-3.02,7.66-3.49c4.51-0.57,9.03-1.5,13.41-2.39c2.34-0.48,4.76-0.97,7.14-1.41
			C774.64,329.36,777.16,329.05,779.13,329.05 M779.13,327.98c-2.29,0-5.18,0.42-8.87,1.09c-6.84,1.24-13.61,2.92-20.49,3.79
			c-8.38,1.06-11.08,5.36-9.73,13.48c5.44,32.74,10.23,65.59,16.07,98.26c6.45,36.06,15.08,71.77,18.59,108.3
			c1.32,13.8,1.67,17.68,9.89,17.68c2.52,0,5.77-0.36,10.02-0.92c34.41-4.5,30.81-0.8,26.93-33.69c-2.8-23.73-7.6-47.22-11.12-68.51
			c0-4.34-0.08-6.27,0.01-8.19c0.39-7.82,3.95-13.63,11.93-14.82c0.74-0.11,1.44-0.16,2.11-0.16c6.62,0,9.94,5.17,11.7,11.38
			c1.47,5.18,2.63,10.48,3.5,15.8c3.98,24.38,7.98,48.75,11.59,73.18c0.96,6.52,2.98,10.22,8.47,10.22c1.27,0,2.72-0.2,4.38-0.6
			c8.98-2.17,18.22-3.33,27.4-4.52c5.9-0.77,7.9-3.85,7.34-9.42c-2.75-27.63-4.93-55.31-10.89-82.56
			c-7.16-32.75-24.18-52.02-50.39-52.02c-8.06,0-16.98,1.82-26.76,5.63c-2.06,0.8-3.76,1.21-5.17,1.21c-3.7,0-5.38-2.78-6.18-8.42
			c-2.93-20.62-6.34-41.19-10.04-61.69C787.43,331.47,785.74,327.98,779.13,327.98L779.13,327.98z"/>
	</g>
	<g>
		<linearGradient id="SVGID_13_" gradientUnits="userSpaceOnUse" x1="899.739" y1="430.3174" x2="1036.5763" y2="430.3174">
			<stop  offset="0" style="stop-color:#FF00C8"/>
			<stop  offset="0.2988" style="stop-color:#FC00C9"/>
			<stop  offset="0.483" style="stop-color:#F400CE"/>
			<stop  offset="0.6361" style="stop-color:#E500D6"/>
			<stop  offset="0.7722" style="stop-color:#D100E1"/>
			<stop  offset="0.8959" style="stop-color:#B700EF"/>
			<stop  offset="1" style="stop-color:#9A00FF"/>
		</linearGradient>
		<path class="st12" d="M899.74,455.18c2.48-36.4,5.69-73.48,28.77-104.82c16.79-22.79,39.6-32.29,67.96-26.39
			c12.84,2.67,22.37,10.32,29.36,20.9c15.58,23.58,13.98,66.66-3.29,88.81c-15.95,20.46-37.14,26.97-61.8,20.26
			c-10.74-2.92-14.02,0.74-14.21,10.52c-0.15,7.78,0,15.5,4.05,22.45c2.87,4.92,6.95,8.52,13.08,7.88
			c5.67-0.59,9.36-4.55,10.21-9.72c1.59-9.68,6.7-10.65,14.85-8.09c5.48,1.72,11.29,2.67,17.02,3.22c9.33,0.9,11.45,5.28,9.07,14.07
			c-8.28,30.6-25.79,45.55-52.38,43.98c-30.47-1.8-55.54-24.45-60.01-54.64C901.06,474.49,900.66,465.21,899.74,455.18z
			 M988.24,386.41c-1.29-4.14,1.48-12.4-5.77-14.47c-5.56-1.59-10.98,3.26-14.25,8.15c-3.17,4.75-5.16,10.27-7.86,15.35
			c-3.22,6.04-1.18,8.64,5.13,10.59C981.12,410.85,988.17,405.5,988.24,386.41z"/>
		<linearGradient id="SVGID_14_" gradientUnits="userSpaceOnUse" x1="899.739" y1="430.3174" x2="1036.5763" y2="430.3174">
			<stop  offset="0" style="stop-color:#FF00C8"/>
			<stop  offset="0.183" style="stop-color:#FC00C9"/>
			<stop  offset="0.324" style="stop-color:#F200CB"/>
			<stop  offset="0.4509" style="stop-color:#E200D0"/>
			<stop  offset="0.5697" style="stop-color:#CB00D5"/>
			<stop  offset="0.6827" style="stop-color:#AD00DD"/>
			<stop  offset="0.7914" style="stop-color:#8800E7"/>
			<stop  offset="0.8957" style="stop-color:#5C00F2"/>
			<stop  offset="0.9958" style="stop-color:#2B00FE"/>
			<stop  offset="1" style="stop-color:#2900FF"/>
		</linearGradient>
		<path class="st13" d="M980.59,322.26l0,1.07h0c5.01,0,10.28,0.57,15.67,1.69c11.67,2.43,21.32,9.31,28.68,20.44
			c15.33,23.2,13.76,65.76-3.24,87.56c-11.58,14.86-26.05,22.39-43,22.39c-5.62,0-11.56-0.84-17.67-2.5
			c-2.51-0.68-4.61-1.01-6.41-1.01c-4.14,0-8.93,1.43-9.15,12.55c-0.16,8.06,0.04,15.88,4.2,23.01c3.29,5.63,7.53,8.49,12.62,8.49
			c0.49,0,0.99-0.03,1.5-0.08c5.91-0.62,10.18-4.68,11.16-10.61c0.97-5.89,3.16-8.4,7.33-8.4c1.64,0,3.65,0.38,6.14,1.16
			c4.94,1.55,10.58,2.62,17.24,3.27c4.08,0.39,6.68,1.48,7.94,3.31c1.34,1.94,1.4,4.93,0.19,9.41c-7.78,28.73-23.79,43.3-47.61,43.3
			c-1.2,0-2.43-0.04-3.67-0.11c-14.52-0.86-28.4-6.68-39.1-16.4c-10.72-9.74-17.79-22.99-19.92-37.33
			c-0.91-6.18-1.39-12.39-1.9-18.96c-0.23-3.03-0.47-6.16-0.76-9.35c1.27-18.62,2.73-36.76,6.63-54.06
			c4.45-19.72,11.62-36.11,21.93-50.11c13.52-18.36,30.75-27.66,51.21-27.67L980.59,322.26 M974.86,408.77
			c9.81,0,14.4-7.1,14.45-22.36l0-0.17l-0.05-0.16c-0.33-1.06-0.36-2.53-0.4-4.1c-0.08-3.96-0.2-9.39-6.1-11.08
			c-0.81-0.23-1.65-0.35-2.49-0.35c-2.1,0-7.56,0.87-12.95,8.93c-2.03,3.04-3.59,6.4-5.1,9.66c-0.89,1.92-1.81,3.91-2.81,5.78
			c-1.64,3.08-2.04,5.42-1.24,7.35c0.85,2.07,3.01,3.54,7,4.77C968.92,408.21,972.09,408.77,974.86,408.77 M980.58,322.26
			c-21.1,0-38.54,9.74-52.07,28.1c-23.08,31.33-26.3,68.42-28.77,104.82c0.92,10.04,1.32,19.31,2.68,28.45
			c4.47,30.19,29.54,52.84,60.01,54.64c1.27,0.07,2.51,0.11,3.73,0.11c24.5,0,40.76-14.95,48.65-44.09
			c2.38-8.79,0.26-13.17-9.07-14.07c-5.73-0.55-11.54-1.5-17.02-3.22c-2.43-0.76-4.58-1.21-6.46-1.21c-4.42,0-7.27,2.5-8.39,9.3
			c-0.85,5.16-4.54,9.12-10.21,9.72c-0.48,0.05-0.94,0.07-1.39,0.07c-5.36,0-9.04-3.42-11.69-7.96c-4.05-6.95-4.21-14.67-4.05-22.45
			c0.15-7.59,2.16-11.5,8.08-11.5c1.7,0,3.73,0.32,6.13,0.98c6.21,1.69,12.21,2.54,17.95,2.54c17.05,0,31.91-7.5,43.85-22.8
			c17.27-22.15,18.87-65.23,3.29-88.81c-6.99-10.58-16.52-18.23-29.36-20.9C990.96,322.82,985.67,322.26,980.58,322.26
			L980.58,322.26z M974.86,407.7c-2.69,0-5.81-0.57-9.37-1.67c-6.31-1.95-8.35-4.56-5.13-10.59c2.71-5.08,4.69-10.6,7.86-15.35
			c2.84-4.24,7.29-8.46,12.06-8.46c0.73,0,1.46,0.1,2.19,0.31c7.25,2.07,4.47,10.33,5.77,14.47
			C988.19,401.15,983.97,407.7,974.86,407.7L974.86,407.7z"/>
	</g>
	<g>
		<linearGradient id="SVGID_15_" gradientUnits="userSpaceOnUse" x1="783.6896" y1="231.6559" x2="911.9645" y2="231.6559">
			<stop  offset="0" style="stop-color:#FF00C8"/>
			<stop  offset="0.2988" style="stop-color:#FC00C9"/>
			<stop  offset="0.483" style="stop-color:#F400CE"/>
			<stop  offset="0.6361" style="stop-color:#E500D6"/>
			<stop  offset="0.7722" style="stop-color:#D100E1"/>
			<stop  offset="0.8959" style="stop-color:#B700EF"/>
			<stop  offset="1" style="stop-color:#9A00FF"/>
		</linearGradient>
		<path class="st14" d="M783.74,234.51c0.61-26.7,2.34-53.15,15.84-77.32c18.47-33.07,58.49-44.59,86.65-24.63
			c13.85,9.81,19.77,24.46,23.18,40.15c5.21,24.02,3.32,46.82-13.91,66.34c-13.82,15.66-31.64,20.27-51.37,17.72
			c-10.46-1.35-12.37,3.1-10.95,11.56c1.27,7.56,1.67,15.51,6.77,21.83c3.46,4.28,7.54,8.18,13.74,6.73
			c5.99-1.4,9.34-5.99,9.56-11.7c0.33-8.54,4.75-10.38,12.08-9.44c3.43,0.44,6.93,0.39,10.4,0.53c21.45,0.88,21.66,1.03,17.77,21.76
			c-8.41,44.77-49.28,51.12-82.55,33.27c-16.13-8.65-25.57-22.88-29.97-40.71C786.42,272.17,783.23,253.62,783.74,234.51z
			 M864.24,192.52c-1.6-7.11-0.47-18.17-8.47-19.48c-8.92-1.47-14.05,7.65-16.52,16.34c-1.16,4.07-2.3,8.14-3.42,12.22
			c-0.65,2.38-0.75,5.26,1.97,5.79c6.29,1.23,12.76,4.14,19.13,0.97C863.26,205.2,863.44,198.77,864.24,192.52z"/>
		<linearGradient id="SVGID_16_" gradientUnits="userSpaceOnUse" x1="783.6896" y1="231.6559" x2="911.9645" y2="231.6559">
			<stop  offset="0" style="stop-color:#FF00C8"/>
			<stop  offset="0.183" style="stop-color:#FC00C9"/>
			<stop  offset="0.324" style="stop-color:#F200CB"/>
			<stop  offset="0.4509" style="stop-color:#E200D0"/>
			<stop  offset="0.5697" style="stop-color:#CB00D5"/>
			<stop  offset="0.6827" style="stop-color:#AD00DD"/>
			<stop  offset="0.7914" style="stop-color:#8800E7"/>
			<stop  offset="0.8957" style="stop-color:#5C00F2"/>
			<stop  offset="0.9958" style="stop-color:#2B00FE"/>
			<stop  offset="1" style="stop-color:#2900FF"/>
		</linearGradient>
		<path class="st15" d="M855.23,122.73v1.07h0c10.98,0,21.49,3.33,30.38,9.64c14.85,10.53,19.96,26.64,22.75,39.5
			c2.8,12.9,3.27,24.17,1.45,34.44c-2.06,11.65-7.01,21.77-15.12,30.96c-10.55,11.95-24.24,18.02-40.67,18.02
			c-3.13,0-6.41-0.22-9.76-0.65c-1.27-0.16-2.45-0.25-3.51-0.25c-3.42,0-5.8,0.86-7.3,2.62c-1.79,2.11-2.2,5.33-1.34,10.43
			c0.2,1.18,0.38,2.4,0.55,3.58c0.96,6.49,1.96,13.2,6.44,18.75c3.12,3.86,6.74,7.44,12,7.44c0.91,0,1.86-0.11,2.82-0.34
			c6.25-1.46,10.13-6.21,10.39-12.71c0.24-6.13,2.52-8.63,7.86-8.63c0.91,0,1.89,0.07,3.01,0.21c2.52,0.32,5.09,0.39,7.57,0.45
			c0.97,0.02,1.95,0.05,2.92,0.09c10.12,0.42,15.7,0.65,17.64,3.09c1.85,2.33,1.02,7.29-0.88,17.41
			c-2.61,13.87-8.42,24.57-17.28,31.78c-7.93,6.46-18.18,9.87-29.66,9.87c-11.14,0-22.92-3.16-34.05-9.13
			c-14.96-8.02-24.86-21.49-29.44-40.03c-5.43-21.98-7.65-39.19-7.2-55.82c0.61-26.77,2.28-52.78,15.7-76.82
			c11.68-20.92,32.64-33.91,54.71-33.91L855.23,122.73 M850.6,210.86c2.5,0,4.73-0.51,6.81-1.54c6.28-3.13,6.99-9.15,7.69-14.97
			c0.07-0.56,0.13-1.13,0.21-1.69l0.02-0.19l-0.04-0.18c-0.37-1.63-0.58-3.47-0.82-5.43c-0.76-6.44-1.63-13.74-8.52-14.88
			c-0.69-0.11-1.38-0.17-2.04-0.17c-9.37,0-13.85,10.82-15.68,17.28c-1.28,4.5-2.4,8.5-3.42,12.23c-0.44,1.6-0.75,3.85,0.24,5.44
			c0.55,0.88,1.43,1.46,2.56,1.68c1.31,0.26,2.67,0.6,3.98,0.93C844.51,210.1,847.54,210.86,850.6,210.86 M855.22,122.73
			c-21.53,0-43.36,12.46-55.65,34.46c-13.5,24.17-15.22,50.62-15.84,77.32c-0.52,19.11,2.67,37.66,7.23,56.1
			c4.4,17.83,13.84,32.06,29.97,40.71c11.17,5.99,23.19,9.26,34.56,9.26c22.49,0,42.41-12.79,47.99-42.53
			c3.89-20.74,3.68-20.88-17.77-21.76c-3.47-0.14-6.97-0.09-10.4-0.53c-1.12-0.14-2.17-0.22-3.14-0.22c-5.44,0-8.66,2.43-8.94,9.66
			c-0.22,5.71-3.57,10.3-9.56,11.7c-0.9,0.21-1.76,0.31-2.57,0.31c-4.8,0-8.21-3.38-11.16-7.04c-5.11-6.32-5.51-14.27-6.77-21.83
			c-1.25-7.46,0.09-11.8,7.58-11.8c1.01,0,2.13,0.08,3.37,0.24c3.36,0.43,6.66,0.66,9.9,0.66c15.78,0,30-5.39,41.47-18.38
			c17.23-19.52,19.12-42.32,13.91-66.34c-3.4-15.69-9.33-30.34-23.18-40.15C876.81,125.89,866.06,122.73,855.22,122.73
			L855.22,122.73z M850.6,209.79c-4.29,0-8.58-1.58-12.79-2.4c-2.71-0.53-2.62-3.41-1.97-5.79c1.12-4.08,2.26-8.15,3.42-12.22
			c2.3-8.07,6.88-16.5,14.65-16.5c0.6,0,1.23,0.05,1.87,0.16c7.99,1.32,6.87,12.37,8.47,19.48c-0.8,6.25-0.98,12.68-7.31,15.84
			C854.83,209.4,852.71,209.79,850.6,209.79L850.6,209.79z"/>
	</g>
	<g>
		<linearGradient id="SVGID_17_" gradientUnits="userSpaceOnUse" x1="146.4518" y1="423.322" x2="275.125" y2="423.322">
			<stop  offset="0" style="stop-color:#FF00C8"/>
			<stop  offset="0.2988" style="stop-color:#FC00C9"/>
			<stop  offset="0.483" style="stop-color:#F400CE"/>
			<stop  offset="0.6361" style="stop-color:#E500D6"/>
			<stop  offset="0.7722" style="stop-color:#D100E1"/>
			<stop  offset="0.8959" style="stop-color:#B700EF"/>
			<stop  offset="1" style="stop-color:#9A00FF"/>
		</linearGradient>
		<path class="st16" d="M275.03,410.06c-0.9,22.74-3.34,45.35-9.22,67.41c-8.02,30.1-31.06,49.27-57.47,46.9
			c-25.01-2.24-43.03-16.56-51.13-39.48c-14.69-41.6-14.21-84.17,0.61-125.8c7.52-21.11,23.21-34.11,46.33-36.64
			c24.68-2.69,42.38,9.09,55.82,28.1C272.48,368.24,275.75,388.75,275.03,410.06z M192.85,424.45c-0.48,14.6,0.41,28.36,7.15,40.99
			c2.44,4.57,5.99,8.08,11.75,7.95c5.69-0.12,7.79-4.53,9.57-8.75c8.13-19.19,9.56-39.41,8.56-59.91
			c-0.4-8.13-2.34-15.96-6.74-22.98c-3.43-5.47-7.57-9.71-14.87-8.71c-7.12,0.98-9.15,6.54-10.52,12.17
			C194.58,398.3,192.22,411.53,192.85,424.45z"/>
		<linearGradient id="SVGID_18_" gradientUnits="userSpaceOnUse" x1="146.4518" y1="423.322" x2="275.125" y2="423.322">
			<stop  offset="0" style="stop-color:#FF00C8"/>
			<stop  offset="0.183" style="stop-color:#FC00C9"/>
			<stop  offset="0.324" style="stop-color:#F200CB"/>
			<stop  offset="0.4509" style="stop-color:#E200D0"/>
			<stop  offset="0.5697" style="stop-color:#CB00D5"/>
			<stop  offset="0.6827" style="stop-color:#AD00DD"/>
			<stop  offset="0.7914" style="stop-color:#8800E7"/>
			<stop  offset="0.8957" style="stop-color:#5C00F2"/>
			<stop  offset="0.9958" style="stop-color:#2B00FE"/>
			<stop  offset="1" style="stop-color:#2900FF"/>
		</linearGradient>
		<path class="st17" d="M211.03,323.15c19.02,0,34.74,9.17,48.07,28.02c10.96,15.51,15.69,34.21,14.86,58.85
			c-1.04,26.21-3.96,47.56-9.19,67.17c-3.67,13.76-10.53,25.4-19.85,33.68c-9.29,8.26-20.43,12.62-32.2,12.62
			c-1.42,0-2.86-0.06-4.28-0.19c-24.32-2.18-42.15-15.95-50.21-38.77c-14.51-41.09-14.31-83.18,0.61-125.08
			c7.5-21.08,23.22-33.51,45.44-35.93C206.56,323.27,208.83,323.15,211.03,323.15L211.03,323.15 M191.78,424.46
			c-0.45,13.63,0.13,28.09,7.28,41.48c3.06,5.74,7.12,8.52,12.4,8.52c0.1,0,0.21,0,0.32,0c6.62-0.14,8.98-5.71,10.54-9.4
			c7.1-16.75,9.84-35.94,8.64-60.38c-0.45-9.11-2.7-16.8-6.9-23.5c-2.9-4.63-6.79-9.36-13.69-9.36c-0.72,0-1.48,0.05-2.24,0.16
			c-7.89,1.09-10.03,7.27-11.41,12.98C194.05,395.93,191.09,410.33,191.78,424.46 M211.03,322.07c-2.23,0-4.52,0.13-6.87,0.38
			c-23.12,2.52-38.82,15.52-46.33,36.64c-14.82,41.63-15.3,84.2-0.61,125.8c8.1,22.92,26.12,37.24,51.13,39.48
			c1.47,0.13,2.93,0.2,4.38,0.2c24.55,0,45.51-18.67,53.09-47.1c5.88-22.06,8.32-44.66,9.22-67.41
			c0.71-21.31-2.55-41.82-15.06-59.51C247.82,333.35,232.18,322.07,211.03,322.07L211.03,322.07z M211.45,473.4
			c-5.58,0-9.06-3.46-11.45-7.96c-6.74-12.63-7.63-26.39-7.15-40.99c-0.63-12.92,1.73-26.15,4.9-39.23
			c1.36-5.62,3.39-11.18,10.52-12.17c0.73-0.1,1.43-0.15,2.09-0.15c6.03,0,9.7,3.93,12.78,8.85c4.4,7.02,6.34,14.85,6.74,22.98
			c1.01,20.5-0.43,40.72-8.56,59.91c-1.79,4.21-3.89,8.62-9.57,8.75C211.65,473.39,211.55,473.4,211.45,473.4L211.45,473.4z"/>
	</g>
	<g>
		<linearGradient id="SVGID_19_" gradientUnits="userSpaceOnUse" x1="468.9427" y1="438.7475" x2="592.3323" y2="438.7475">
			<stop  offset="0" style="stop-color:#FF00C8"/>
			<stop  offset="0.2988" style="stop-color:#FC00C9"/>
			<stop  offset="0.483" style="stop-color:#F400CE"/>
			<stop  offset="0.6361" style="stop-color:#E500D6"/>
			<stop  offset="0.7722" style="stop-color:#D100E1"/>
			<stop  offset="0.8959" style="stop-color:#B700EF"/>
			<stop  offset="1" style="stop-color:#9A00FF"/>
		</linearGradient>
		<path class="st18" d="M469.02,411.85c-0.51-9.31,1.56-24.98,8.83-39.44c10.34-20.57,27.11-32.99,50.36-33.46
			c21.58-0.43,35.72,12.21,45.36,30.64c7.69,14.7,12.26,30,9.58,46.76c-4.48,28.05-22.38,44.98-50.67,46.62
			c-9.41,0.55-11.35,3.61-8.75,12.07c2.18,7.09,4.24,14.11,9.8,19.34c3.52,3.31,7.79,5.31,12.71,3.62c5.06-1.74,7.49-6.06,6.8-10.93
			c-1.33-9.46,2.99-12.67,11.6-12.37c0.76,0.03,1.52-0.23,2.29-0.35c25.52-3.79,26.87-2.51,24.7,23.44
			c-2.64,31.6-36.78,49.37-69.58,36.58c-15.64-6.1-26.5-16.63-33.53-31.73C476.09,475.98,470,447.92,469.02,411.85z M515.28,410.67
			c-0.46,3.59-1.58,9.47,7.85,8.9c8.3-0.49,15.97-1.37,15.53-12.1c-0.36-8.78-1.41-18.42-10.71-22.19
			C522.65,383.12,515.87,396.03,515.28,410.67z"/>
		<linearGradient id="SVGID_20_" gradientUnits="userSpaceOnUse" x1="468.9427" y1="438.7475" x2="592.3327" y2="438.7475">
			<stop  offset="0" style="stop-color:#FF00C8"/>
			<stop  offset="0.183" style="stop-color:#FC00C9"/>
			<stop  offset="0.324" style="stop-color:#F200CB"/>
			<stop  offset="0.4509" style="stop-color:#E200D0"/>
			<stop  offset="0.5697" style="stop-color:#CB00D5"/>
			<stop  offset="0.6827" style="stop-color:#AD00DD"/>
			<stop  offset="0.7914" style="stop-color:#8800E7"/>
			<stop  offset="0.8957" style="stop-color:#5C00F2"/>
			<stop  offset="0.9958" style="stop-color:#2B00FE"/>
			<stop  offset="1" style="stop-color:#2900FF"/>
		</linearGradient>
		<path class="st19" d="M529.28,338.94v1.07h0c18.57,0,32.75,9.84,43.34,30.08c8.8,16.81,11.81,31.46,9.47,46.1
			c-4.46,27.88-22.1,44.12-49.67,45.72c-5.22,0.3-8.22,1.4-9.72,3.56c-1.46,2.1-1.46,5.15,0.01,9.9l0.16,0.51
			c2.11,6.88,4.3,14,9.93,19.29c3.19,3,6.52,4.52,9.89,4.52c1.29,0,2.6-0.23,3.9-0.67c5.34-1.83,8.29-6.58,7.52-12.09
			c-0.57-4.01-0.09-6.83,1.45-8.6c1.5-1.73,4.12-2.57,8.02-2.57c0.33,0,0.68,0.01,1.02,0.02c0.05,0,0.1,0,0.15,0
			c0.58,0,1.11-0.11,1.62-0.22c0.24-0.05,0.47-0.1,0.71-0.14c6.55-0.97,11.31-1.57,14.84-1.57c3.67,0,5.9,0.65,7.23,2.09
			c2.75,2.99,2.37,10.22,1.4,21.77c-1.92,23.05-21.58,39.78-46.75,39.78c-7.19,0-14.38-1.38-21.38-4.11
			c-15.15-5.91-25.93-16.11-32.95-31.18c-12.43-26.69-18.41-54.56-19.39-90.4c-0.49-8.96,1.49-24.53,8.72-38.9
			c5.19-10.32,11.91-18.34,19.98-23.86c8.41-5.75,18.32-8.78,29.44-9c0.35-0.01,0.7-0.01,1.05-0.01L529.28,338.94 M514.21,410.57
			l-0.04,0.33c-0.3,2.26-0.71,5.35,1.19,7.52c1.33,1.52,3.47,2.25,6.56,2.25c0.41,0,0.84-0.01,1.28-0.04
			c7.59-0.45,17.04-1.02,16.53-13.22c-0.38-9.12-1.6-19.17-11.38-23.14c-0.51-0.21-1.05-0.31-1.6-0.31
			C520.76,383.97,514.79,396.64,514.21,410.57 M529.28,338.94c-0.35,0-0.71,0-1.07,0.01c-23.25,0.47-40.02,12.89-50.36,33.46
			c-7.27,14.45-9.34,30.13-8.83,39.44c0.99,36.08,7.07,64.13,19.49,90.8c7.03,15.1,17.89,25.63,33.53,31.73
			c7.31,2.85,14.69,4.18,21.77,4.18c24.69,0,45.77-16.21,47.82-40.76c1.62-19.42,1.28-25.02-9.7-25.02c-3.69,0-8.58,0.63-15,1.59
			c-0.73,0.11-1.46,0.35-2.18,0.35c-0.04,0-0.07,0-0.11,0c-0.36-0.01-0.72-0.02-1.06-0.02c-7.89,0-11.81,3.33-10.53,12.39
			c0.69,4.87-1.75,9.19-6.8,10.93c-1.22,0.42-2.41,0.61-3.55,0.61c-3.45,0-6.52-1.75-9.16-4.23c-5.56-5.23-7.62-12.25-9.8-19.34
			c-2.6-8.46-0.66-11.53,8.75-12.07c28.28-1.64,46.18-18.57,50.67-46.62c2.68-16.76-1.88-32.06-9.58-46.76
			C564.08,351.47,550.26,338.94,529.28,338.94L529.28,338.94z M521.91,419.61c-8.12,0-7.08-5.51-6.64-8.94
			c0.55-13.56,6.41-25.63,11.48-25.63c0.4,0,0.8,0.08,1.19,0.23c9.3,3.78,10.34,13.41,10.71,22.19c0.44,10.73-7.23,11.61-15.53,12.1
			C522.7,419.59,522.3,419.61,521.91,419.61L521.91,419.61z"/>
	</g>
	<g>
		<linearGradient id="SVGID_21_" gradientUnits="userSpaceOnUse" x1="381.5648" y1="210.0994" x2="508.4005" y2="210.0994">
			<stop  offset="0" style="stop-color:#FF00C8"/>
			<stop  offset="0.2988" style="stop-color:#FC00C9"/>
			<stop  offset="0.483" style="stop-color:#F400CE"/>
			<stop  offset="0.6361" style="stop-color:#E500D6"/>
			<stop  offset="0.7722" style="stop-color:#D100E1"/>
			<stop  offset="0.8959" style="stop-color:#B700EF"/>
			<stop  offset="1" style="stop-color:#9A00FF"/>
		</linearGradient>
		<path class="st20" d="M381.57,186.69c-0.15-34.01,14.9-56.49,38.25-63.36c10.09-2.97,19.97-2.2,29.4,2.06
			c19.94,8.99,37.5,38.38,36.53,60.52c-1.03,23.7-11.61,38.45-35.17,46.08c-10.42,3.37-10.89,7.98-5.38,15.58
			c2.7,3.72,5.47,7.52,8.87,10.55c3.85,3.43,8.66,5.47,13.82,2.56c4.83-2.73,5.45-7.52,4.07-12.17c-2.1-7.1,1.26-10.01,7.41-11.5
			c1.49-0.36,2.92-1.01,4.37-1.52c20.01-7.05,22.74-5.27,24.49,15.97c2.46,29.81-21.59,51-53.2,46.62
			c-12.55-1.74-23.8-6.27-32.24-16.4C398.32,252.34,384.45,218.72,381.57,186.69z M422.88,180.89c3.22,4.48-2.9,14.63,7.18,14.87
			c6.67,0.16,15.41-1.45,15.28-11.87c-0.11-8.04-8.79-20.43-13.83-19.26C423.28,166.54,423.88,174.02,422.88,180.89z"/>
		<linearGradient id="SVGID_22_" gradientUnits="userSpaceOnUse" x1="381.5648" y1="210.0994" x2="508.4004" y2="210.0994">
			<stop  offset="0" style="stop-color:#FF00C8"/>
			<stop  offset="0.183" style="stop-color:#FC00C9"/>
			<stop  offset="0.324" style="stop-color:#F200CB"/>
			<stop  offset="0.4509" style="stop-color:#E200D0"/>
			<stop  offset="0.5697" style="stop-color:#CB00D5"/>
			<stop  offset="0.6827" style="stop-color:#AD00DD"/>
			<stop  offset="0.7914" style="stop-color:#8800E7"/>
			<stop  offset="0.8957" style="stop-color:#5C00F2"/>
			<stop  offset="0.9958" style="stop-color:#2B00FE"/>
			<stop  offset="1" style="stop-color:#2900FF"/>
		</linearGradient>
		<path class="st21" d="M431.88,121.55v1.07c5.7,0,11.39,1.26,16.89,3.74c19.41,8.75,36.85,37.66,35.9,59.49
			c-1.04,23.83-11.66,37.74-34.43,45.11c-5.42,1.75-8.38,3.89-9.31,6.73c-0.91,2.78,0.14,6.02,3.39,10.49
			c2.57,3.55,5.49,7.57,9.02,10.72c3.14,2.8,6.34,4.22,9.5,4.22c1.89,0,3.76-0.52,5.56-1.53c4.72-2.66,6.34-7.43,4.57-13.41
			c-0.82-2.76-0.78-4.86,0.12-6.42c0.98-1.71,3.05-2.89,6.51-3.73c1.08-0.26,2.11-0.66,3.11-1.04c0.45-0.17,0.91-0.35,1.36-0.51
			c6.22-2.19,11.07-3.66,14.48-3.66c5.6,0,7.36,3.84,8.59,18.7c1.02,12.4-2.68,23.86-10.44,32.29c-8.16,8.86-20.06,13.74-33.5,13.74
			c-2.63,0-5.33-0.19-8.03-0.56c-13.85-1.92-24.18-7.16-31.57-16.02c-23.46-28.13-38.01-61.63-40.97-94.35
			c-0.07-16.18,3.44-30.44,10.15-41.24c6.46-10.4,15.91-17.68,27.33-21.03c3.92-1.15,7.88-1.74,11.76-1.74L431.88,121.55
			 M430.91,196.85c5.58,0,9.73-1.34,12.34-3.98c2.15-2.18,3.21-5.2,3.16-8.99c-0.05-3.81-1.87-8.72-4.88-13.14
			c-3.09-4.54-6.58-7.26-9.33-7.26c-0.32,0-0.64,0.04-0.94,0.11c-7.75,1.8-8.43,8.05-9.08,14.09c-0.11,1.01-0.22,2.06-0.37,3.06
			l-0.06,0.43l0.25,0.35c0.96,1.34,0.9,3.49,0.83,5.77c-0.08,2.78-0.17,5.65,1.67,7.59c1.2,1.26,3,1.9,5.53,1.97
			C430.33,196.84,430.62,196.85,430.91,196.85 M431.88,121.55c-3.98,0-8.01,0.59-12.06,1.78c-23.35,6.87-38.4,29.34-38.25,63.36
			c2.89,32.03,16.75,65.65,41.22,94.98c8.45,10.12,19.7,14.66,32.24,16.4c2.79,0.39,5.52,0.57,8.18,0.57
			c27.46,0,47.26-20.01,45.02-47.19c-1.17-14.18-2.78-19.68-9.66-19.68c-3.43,0-8.18,1.37-14.83,3.72
			c-1.46,0.51-2.88,1.16-4.37,1.52c-6.14,1.49-9.51,4.39-7.41,11.5c1.37,4.65,0.76,9.44-4.07,12.17c-1.72,0.97-3.41,1.39-5.03,1.39
			c-3.23,0-6.22-1.67-8.79-3.95c-3.4-3.03-6.17-6.83-8.87-10.55c-5.51-7.6-5.04-12.21,5.38-15.58
			c23.56-7.63,34.14-22.38,35.17-46.08c0.96-22.13-16.6-51.52-36.53-60.52C443.58,122.85,437.78,121.55,431.88,121.55L431.88,121.55
			z M430.91,195.78c-0.29,0-0.57,0-0.85-0.01c-10.08-0.24-3.97-10.39-7.18-14.87c1-6.88,0.4-14.35,8.63-16.26
			c0.22-0.05,0.46-0.08,0.69-0.08c5.1,0,13.03,11.66,13.13,19.34C445.47,193.88,437.45,195.78,430.91,195.78L430.91,195.78z"/>
	</g>
	<g>
		<linearGradient id="SVGID_23_" gradientUnits="userSpaceOnUse" x1="1034.3414" y1="482.0812" x2="1150.2897" y2="482.0812">
			<stop  offset="0" style="stop-color:#FF00C8"/>
			<stop  offset="0.2988" style="stop-color:#FC00C9"/>
			<stop  offset="0.483" style="stop-color:#F400CE"/>
			<stop  offset="0.6361" style="stop-color:#E500D6"/>
			<stop  offset="0.7722" style="stop-color:#D100E1"/>
			<stop  offset="0.8959" style="stop-color:#B700EF"/>
			<stop  offset="1" style="stop-color:#9A00FF"/>
		</linearGradient>
		<path class="st22" d="M1149.88,463.11c-0.42,5.38-0.88,10.76-1.26,16.14c-1.24,17.44-1.66,18.13-19.52,16.07
			c-23.14-2.67-23.85,3.32-22.09-25.76c0.4-6.54,1.15-13.06,1.5-19.6c0.25-4.78-0.12-9.92-6.02-10.9c-5.5-0.91-9.92,1.82-11.77,7.21
			c-1.61,4.71-2.85,9.61-3.63,14.53c-5.24,32.77-6.33,65.99-10.32,98.89c-2.03,16.7-2.47,16.65-18.61,14.6
			c-24.33-3.09-25-3.14-23.19-27.78c3.63-49.6,10.01-98.92,16-148.28c0.84-6.95,3.79-10.54,11.46-8.93
			c6.77,1.42,13.71,2.06,20.53,3.3c2.19,0.4,5.76,1.16,6.13,2.47c3.43,12.33,12.06,7.52,19.89,6.82
			c18.96-1.69,33.92,9.77,38.91,29.03C1150.62,441.55,1150.6,452.29,1149.88,463.11z"/>
		<linearGradient id="SVGID_24_" gradientUnits="userSpaceOnUse" x1="1034.3414" y1="482.0812" x2="1150.2897" y2="482.0812">
			<stop  offset="0" style="stop-color:#FF00C8"/>
			<stop  offset="0.183" style="stop-color:#FC00C9"/>
			<stop  offset="0.324" style="stop-color:#F200CB"/>
			<stop  offset="0.4509" style="stop-color:#E200D0"/>
			<stop  offset="0.5697" style="stop-color:#CB00D5"/>
			<stop  offset="0.6827" style="stop-color:#AD00DD"/>
			<stop  offset="0.7914" style="stop-color:#8800E7"/>
			<stop  offset="0.8957" style="stop-color:#5C00F2"/>
			<stop  offset="0.9958" style="stop-color:#2B00FE"/>
			<stop  offset="1" style="stop-color:#2900FF"/>
		</linearGradient>
		<path class="st23" d="M1059.11,390c0.92,0,1.96,0.12,3.09,0.36c3.88,0.81,7.87,1.38,11.72,1.93c2.91,0.41,5.91,0.84,8.84,1.37
			c4.69,0.85,5.25,1.64,5.29,1.7c1.73,6.22,4.98,9.11,10.22,9.11c2.01,0,4.15-0.4,6.22-0.79c1.51-0.29,3.08-0.58,4.57-0.71
			c1.19-0.11,2.39-0.16,3.56-0.16c16.57,0,29.68,10.88,34.22,28.4c2.87,11.06,2.61,22.3,1.98,31.83c-0.13,1.69-0.27,3.38-0.41,5.07
			c-0.29,3.63-0.6,7.38-0.86,11.08c-0.99,13.9-1.58,15.89-8.52,15.89c-2.34,0-5.36-0.3-9.8-0.81c-3.99-0.46-7.36-0.67-10.07-0.83
			c-6.99-0.43-9.47-0.7-10.67-3.14c-1.4-2.84-1.12-8.71-0.4-20.66c0.18-3.04,0.45-6.13,0.71-9.11c0.3-3.43,0.6-6.98,0.79-10.49
			c0.18-3.5,0.57-10.78-6.91-12.01c-0.75-0.12-1.49-0.19-2.21-0.19c-5.07,0-8.98,2.96-10.75,8.11c-1.65,4.83-2.89,9.77-3.68,14.71
			c-3.09,19.31-4.76,39.08-6.38,58.2c-1.13,13.37-2.3,27.2-3.95,40.73c-1.53,12.57-2.18,14.59-7.8,14.59
			c-2.32,0-5.37-0.39-9.61-0.93l-0.1-0.01c-11.94-1.52-17.93-2.28-20.63-5.44c-2.71-3.18-2.39-9.45-1.53-21.19
			c3.17-43.36,8.54-87.25,13.73-129.69c0.76-6.18,1.51-12.36,2.26-18.54C1052.74,392.5,1054.85,390,1059.11,390 M1059.11,388.93
			c-5.24,0-7.44,3.47-8.15,9.31c-5.99,49.36-12.37,98.68-16,148.28c-1.8,24.65-1.14,24.69,23.19,27.78
			c4.22,0.54,7.36,0.93,9.74,0.93c6.74,0,7.37-3.19,8.87-15.53c4-32.9,5.08-66.12,10.32-98.89c0.79-4.92,2.02-9.82,3.63-14.53
			c1.61-4.71,5.19-7.39,9.73-7.39c0.66,0,1.34,0.06,2.04,0.17c5.9,0.97,6.27,6.11,6.02,10.9c-0.34,6.54-1.1,13.06-1.5,19.6
			c-1.76,29.08-1.05,23.09,22.09,25.76c4.19,0.48,7.42,0.82,9.92,0.82c8.18,0,8.65-3.54,9.59-16.89c0.38-5.38,0.84-10.76,1.26-16.14
			c0.71-10.82,0.74-21.56-2.01-32.18c-4.66-18.01-18.04-29.2-35.26-29.2c-1.2,0-2.42,0.05-3.65,0.16c-3.59,0.32-7.35,1.5-10.7,1.5
			c-3.95,0-7.33-1.65-9.19-8.33c-0.36-1.31-3.93-2.08-6.13-2.47c-6.82-1.23-13.75-1.88-20.53-3.3
			C1061.2,389.05,1060.1,388.93,1059.11,388.93L1059.11,388.93z"/>
	</g>
	<g>
		<linearGradient id="SVGID_25_" gradientUnits="userSpaceOnUse" x1="918.4202" y1="203.5013" x2="1035.0032" y2="203.5013">
			<stop  offset="0" style="stop-color:#FF00C8"/>
			<stop  offset="0.2988" style="stop-color:#FC00C9"/>
			<stop  offset="0.483" style="stop-color:#F400CE"/>
			<stop  offset="0.6361" style="stop-color:#E500D6"/>
			<stop  offset="0.7722" style="stop-color:#D100E1"/>
			<stop  offset="0.8959" style="stop-color:#B700EF"/>
			<stop  offset="1" style="stop-color:#9A00FF"/>
		</linearGradient>
		<path class="st24" d="M1034.22,184.87c-0.35,6.32-0.6,11.71-0.95,17.1c-1.02,15.53-2.64,16.84-18.53,15.1
			c-25.29-2.76-25.26-2.76-22.91-28.23c0.57-6.14,0.98-12.3,1.2-18.46c0.15-4.41-0.5-8.93-5.81-9.91c-5.07-0.94-9.09,1.49-11.46,6
			c-2.91,5.54-3.85,11.69-4.47,17.84c-3.2,31.44-6.21,62.91-9.56,94.34c-2.03,19-2.25,18.97-21.04,17.19
			c-22.7-2.15-23.63-2.24-21.49-24.34c4.86-50.25,10.76-100.41,16.15-150.61c0.95-8.87,5-12.15,13.97-9.62
			c5.52,1.55,11.4,1.76,17.06,2.84c2.59,0.49,6.95,1.15,7.3,2.54c3.18,12.68,12.12,7.46,19.68,6.94
			c19.09-1.33,33.17,8.77,38.7,27.81C1035.31,162.67,1035.61,174.19,1034.22,184.87z"/>
		<linearGradient id="SVGID_26_" gradientUnits="userSpaceOnUse" x1="918.4202" y1="203.5013" x2="1035.0033" y2="203.5013">
			<stop  offset="0" style="stop-color:#FF00C8"/>
			<stop  offset="0.183" style="stop-color:#FC00C9"/>
			<stop  offset="0.324" style="stop-color:#F200CB"/>
			<stop  offset="0.4509" style="stop-color:#E200D0"/>
			<stop  offset="0.5697" style="stop-color:#CB00D5"/>
			<stop  offset="0.6827" style="stop-color:#AD00DD"/>
			<stop  offset="0.7914" style="stop-color:#8800E7"/>
			<stop  offset="0.8957" style="stop-color:#5C00F2"/>
			<stop  offset="0.9958" style="stop-color:#2B00FE"/>
			<stop  offset="1" style="stop-color:#2900FF"/>
		</linearGradient>
		<path class="st25" d="M944.11,111.5c1.4,0,3.05,0.26,4.9,0.79c3.43,0.97,7.02,1.43,10.49,1.87c2.2,0.28,4.47,0.57,6.66,0.99
			l0.81,0.15c1.41,0.26,5.13,0.95,5.65,1.64c1.59,6.28,4.76,9.21,9.98,9.21c1.98,0,4.07-0.4,6.09-0.79c1.58-0.3,3.2-0.62,4.72-0.72
			c1.09-0.08,2.17-0.11,3.23-0.11c17.08,0,29.28,9.64,34.36,27.15c2.95,10.17,3.67,21.28,2.15,33.04l-0.01,0.04l0,0.04
			c-0.11,2.04-0.21,3.99-0.31,5.87c-0.2,3.9-0.4,7.58-0.64,11.22c-0.83,12.63-2.14,14.69-9.32,14.69c-1.9,0-4.3-0.17-8.03-0.58
			c-12.32-1.35-18.51-2.02-21.1-5.2c-2.59-3.18-2.02-9.39-0.87-21.77l0.01-0.1c0.6-6.54,1-12.6,1.2-18.52
			c0.09-2.66,0.34-9.71-6.69-11c-0.78-0.14-1.55-0.22-2.3-0.22c-4.35,0-8,2.4-10.3,6.77c-3.13,5.96-4.01,12.53-4.59,18.23
			c-1.14,11.19-2.27,22.57-3.37,33.58c-1.98,19.92-4.04,40.51-6.19,60.75c-1.55,14.56-2.02,16.98-9.53,16.98
			c-2.58,0-6-0.32-10.34-0.74c-11.41-1.08-17.13-1.62-19.55-4.56c-2.24-2.72-2.02-7.76-0.97-18.61
			c3.25-33.64,7.03-67.79,10.69-100.82c1.81-16.31,3.67-33.18,5.45-49.77C937.3,112.58,940.99,111.5,944.11,111.5 M944.11,110.43
			c-5.39,0-8.03,3.51-8.78,10.45c-5.39,50.2-11.29,100.36-16.15,150.61c-2.14,22.1-1.2,22.19,21.49,24.34
			c4.42,0.42,7.81,0.74,10.45,0.74c8.55,0,9.05-3.4,10.6-17.93c3.35-31.43,6.36-62.89,9.56-94.34c0.63-6.15,1.56-12.3,4.47-17.84
			c2.03-3.86,5.27-6.2,9.35-6.2c0.68,0,1.38,0.07,2.11,0.2c5.31,0.98,5.97,5.5,5.81,9.91c-0.21,6.16-0.63,12.32-1.2,18.46
			c-2.35,25.47-2.38,25.47,22.91,28.23c3.28,0.36,5.96,0.59,8.14,0.59c8.39,0,9.58-3.37,10.39-15.69c0.35-5.39,0.6-10.78,0.95-17.1
			c1.39-10.68,1.09-22.2-2.18-33.48c-5.2-17.92-17.98-27.93-35.4-27.93c-1.08,0-2.19,0.04-3.3,0.12c-3.52,0.25-7.33,1.51-10.73,1.51
			c-3.9,0-7.25-1.66-8.95-8.44c-0.35-1.39-4.7-2.05-7.3-2.54c-5.67-1.08-11.55-1.29-17.06-2.84
			C947.34,110.71,945.62,110.43,944.11,110.43L944.11,110.43z"/>
	</g>
	<g>
		<linearGradient id="SVGID_27_" gradientUnits="userSpaceOnUse" x1="1102.4448" y1="598.4205" x2="1200" y2="598.4205">
			<stop  offset="0" style="stop-color:#FF00C8"/>
			<stop  offset="0.2988" style="stop-color:#FC00C9"/>
			<stop  offset="0.483" style="stop-color:#F400CE"/>
			<stop  offset="0.6361" style="stop-color:#E500D6"/>
			<stop  offset="0.7722" style="stop-color:#D100E1"/>
			<stop  offset="0.8959" style="stop-color:#B700EF"/>
			<stop  offset="1" style="stop-color:#9A00FF"/>
		</linearGradient>
		<path class="st26" d="M1151.52,646.92c-27.11-0.01-49.2-21.75-49.07-48.31c0.13-26.64,22.3-48.72,48.88-48.69
			c27,0.03,48.62,21.59,48.67,48.53C1200.05,625.79,1178.91,646.93,1151.52,646.92z M1175.56,623.32
			c9.2-4.25,12.49-12.38,13.34-21.58c1.94-20.9-14.11-39.15-35.37-40.68c-20.11-1.44-38.67,15.07-39.69,35.31
			c-1.07,21,15.54,39.58,36.56,39.46c9.92-0.06,20.89-0.59,25.36-12.71L1175.56,623.32z"/>
		<linearGradient id="SVGID_28_" gradientUnits="userSpaceOnUse" x1="1102.4448" y1="598.4205" x2="1200.0001" y2="598.4205">
			<stop  offset="0" style="stop-color:#FF00C8"/>
			<stop  offset="0.183" style="stop-color:#FC00C9"/>
			<stop  offset="0.324" style="stop-color:#F200CB"/>
			<stop  offset="0.4509" style="stop-color:#E200D0"/>
			<stop  offset="0.5697" style="stop-color:#CB00D5"/>
			<stop  offset="0.6827" style="stop-color:#AD00DD"/>
			<stop  offset="0.7914" style="stop-color:#8800E7"/>
			<stop  offset="0.8957" style="stop-color:#5C00F2"/>
			<stop  offset="0.9958" style="stop-color:#2B00FE"/>
			<stop  offset="1" style="stop-color:#2900FF"/>
		</linearGradient>
		<path class="st27" d="M1151.27,550.99L1151.27,550.99h0.06c12.78,0.02,24.74,4.94,33.69,13.86c8.95,8.92,13.89,20.85,13.91,33.6
			c0.03,12.92-4.8,24.88-13.6,33.69c-8.82,8.84-20.82,13.7-33.81,13.7c-13.02,0-25.21-5.06-34.35-14.24
			c-8.86-8.91-13.71-20.62-13.65-33c0.06-12.59,5.1-24.51,14.18-33.57C1126.79,555.98,1138.71,550.99,1151.27,550.99 M1150.19,636.9
			l0.22,0c8.93-0.05,21.12-0.13,26.15-12.86c8.01-3.92,12.4-11.19,13.42-22.2c0.95-10.18-2.21-20.12-8.88-27.99
			c-6.92-8.16-16.68-13.08-27.48-13.86c-0.84-0.06-1.69-0.09-2.53-0.09c-9.56,0-18.86,3.8-26.16,10.71
			c-7.34,6.94-11.66,16.07-12.15,25.7c-0.54,10.63,3.38,21.18,10.77,28.95C1130.67,632.77,1140.13,636.9,1150.19,636.9
			 M1151.27,549.92c-26.56,0-48.69,22.07-48.82,48.69c-0.13,26.56,21.96,48.31,49.07,48.31c0.01,0,0.01,0,0.01,0
			c27.39,0,48.53-21.13,48.47-48.47c-0.05-26.94-21.67-48.5-48.67-48.53C1151.31,549.92,1151.29,549.92,1151.27,549.92
			L1151.27,549.92z M1150.19,635.83c-20.91,0-37.41-18.53-36.35-39.46c0.99-19.42,18.1-35.4,37.24-35.4c0.81,0,1.63,0.03,2.45,0.09
			c21.26,1.53,37.31,19.78,35.37,40.68c-0.85,9.16-4.11,17.25-13.2,21.52c-4.5,11.99-15.42,12.51-25.31,12.57
			C1150.33,635.83,1150.26,635.83,1150.19,635.83L1150.19,635.83z M1175.75,623.12l-0.19,0.2c0.05-0.02,0.09-0.04,0.14-0.07
			C1175.72,623.21,1175.74,623.16,1175.75,623.12L1175.75,623.12z"/>
	</g>
	<g>
		<linearGradient id="SVGID_29_" gradientUnits="userSpaceOnUse" x1="472.2776" y1="713.3436" x2="516.2883" y2="713.3436">
			<stop  offset="0" style="stop-color:#FF00C8"/>
			<stop  offset="0.2988" style="stop-color:#FC00C9"/>
			<stop  offset="0.483" style="stop-color:#F400CE"/>
			<stop  offset="0.6361" style="stop-color:#E500D6"/>
			<stop  offset="0.7722" style="stop-color:#D100E1"/>
			<stop  offset="0.8959" style="stop-color:#B700EF"/>
			<stop  offset="1" style="stop-color:#9A00FF"/>
		</linearGradient>
		<path class="st28" d="M494.04,710.04c1.03-0.75,1.4-0.9,1.6-1.17c3.6-5.07,1-16.04,11.34-14.47c9.99,1.52,4.55,11.42,6.9,17.23
			c0.98,2.42,1.23,5.31,1.11,7.95c-0.19,4.12,4.17,9.75-2.1,12.04c-6.88,2.51-7.62-3.99-8.95-10.89c-4.86,8.7-8.4,17.08-16.68,6.03
			c-2.57-3.43-3.2,1-4.13,2.38c-2.02,2.97-4.8,4.13-7.95,2.93c-3.74-1.43-2.89-5.11-2.63-8.03c0.62-6.88,1.62-13.73,2.41-20.6
			c0.5-4.34,0.97-8.54,6.65-9.22c5.69-0.68,7.15,3.01,8.4,7.39C490.81,704.44,490.88,707.7,494.04,710.04z"/>
		<linearGradient id="SVGID_30_" gradientUnits="userSpaceOnUse" x1="472.2776" y1="713.3436" x2="516.2883" y2="713.3436">
			<stop  offset="0" style="stop-color:#FF00C8"/>
			<stop  offset="0.183" style="stop-color:#FC00C9"/>
			<stop  offset="0.324" style="stop-color:#F200CB"/>
			<stop  offset="0.4509" style="stop-color:#E200D0"/>
			<stop  offset="0.5697" style="stop-color:#CB00D5"/>
			<stop  offset="0.6827" style="stop-color:#AD00DD"/>
			<stop  offset="0.7914" style="stop-color:#8800E7"/>
			<stop  offset="0.8957" style="stop-color:#5C00F2"/>
			<stop  offset="0.9958" style="stop-color:#2B00FE"/>
			<stop  offset="1" style="stop-color:#2900FF"/>
		</linearGradient>
		<path class="st29" d="M482.9,695.22L482.9,695.22c3.55,0,4.79,2.16,6.08,6.69c0.15,0.54,0.28,1.1,0.41,1.7
			c0.55,2.43,1.17,5.19,4.02,7.3l0.63,0.47l0.64-0.46c0.39-0.28,0.69-0.48,0.91-0.63c0.42-0.28,0.7-0.47,0.94-0.79
			c1.29-1.81,1.84-4.21,2.37-6.52c1.08-4.74,1.97-7.64,6.22-7.64c0.53,0,1.11,0.05,1.72,0.14c5.42,0.83,5.57,4.1,5.38,9.37
			c-0.09,2.48-0.19,5.04,0.69,7.21c1.02,2.53,1.13,5.48,1.03,7.5c-0.06,1.39,0.31,2.86,0.68,4.28c0.9,3.53,1.25,5.59-2.07,6.8
			c-0.88,0.32-1.67,0.49-2.34,0.49c-2.98,0-3.86-3.5-4.95-9.27c-0.08-0.43-0.16-0.86-0.25-1.3l-0.56-2.88l-1.43,2.56
			c-0.33,0.6-0.66,1.19-0.99,1.78c-2.54,4.62-4.93,8.98-7.69,8.98c-1.71,0-3.8-1.63-6.21-4.85c-0.55-0.73-1.41-1.71-2.55-1.71
			c-1.56,0-2.25,1.66-2.8,3c-0.18,0.44-0.37,0.9-0.53,1.13c-0.91,1.33-2.45,2.92-4.67,2.92c-0.65,0-1.32-0.13-2.02-0.4
			c-2.41-0.92-2.38-2.87-2.04-5.98c0.03-0.32,0.07-0.64,0.1-0.95c0.4-4.4,0.96-8.86,1.5-13.18c0.3-2.42,0.62-4.92,0.91-7.42
			c0.55-4.75,1.11-7.7,5.71-8.24C482.14,695.24,482.53,695.22,482.9,695.22 M482.9,694.15c-0.4,0-0.83,0.03-1.29,0.08
			c-5.68,0.68-6.15,4.88-6.65,9.22c-0.79,6.87-1.78,13.72-2.41,20.6c-0.27,2.92-1.11,6.6,2.63,8.03c0.83,0.31,1.63,0.47,2.4,0.47
			c2.16,0,4.07-1.2,5.55-3.39c0.69-1.01,1.2-3.65,2.44-3.65c0.45,0,1,0.36,1.69,1.28c2.83,3.78,5.1,5.28,7.07,5.28
			c3.78,0,6.41-5.59,9.61-11.32c1.14,5.86,1.84,11.44,6.25,11.44c0.78,0,1.67-0.17,2.7-0.55c6.26-2.29,1.91-7.92,2.1-12.04
			c0.12-2.64-0.13-5.53-1.11-7.95c-2.35-5.82,3.1-15.71-6.9-17.23c-0.68-0.1-1.31-0.15-1.88-0.15c-8.14,0-6.1,9.88-9.46,14.62
			c-0.19,0.27-0.56,0.42-1.6,1.17c-3.17-2.34-3.23-5.6-4.04-8.42C488.86,697.59,487.53,694.15,482.9,694.15L482.9,694.15z"/>
	</g>
	<g>
		<linearGradient id="SVGID_31_" gradientUnits="userSpaceOnUse" x1="732.6064" y1="713.2916" x2="766.5461" y2="713.2916">
			<stop  offset="0" style="stop-color:#FF00C8"/>
			<stop  offset="0.2988" style="stop-color:#FC00C9"/>
			<stop  offset="0.483" style="stop-color:#F400CE"/>
			<stop  offset="0.6361" style="stop-color:#E500D6"/>
			<stop  offset="0.7722" style="stop-color:#D100E1"/>
			<stop  offset="0.8959" style="stop-color:#B700EF"/>
			<stop  offset="1" style="stop-color:#9A00FF"/>
		</linearGradient>
		<path class="st30" d="M744.62,717.63c-0.49,2.33-0.88,3.79-1.11,5.28c-0.6,3.9,0.98,9.47-5.89,8.87c-6.58-0.57-4.6-6.1-4.8-9.91
			c-0.33-6.15-0.25-12.35,0.04-18.51c0.15-3.2-1.13-7.47,3.57-8.72c4.28-1.14,7.34,0.9,9.74,4.46c3.81,5.63,7.84,12.25,10.29-0.86
			c0.6-3.23,3.32-4.03,6.28-3.66c3.76,0.47,3.63,3.52,3.66,6.17c0.12,8.1,0.12,16.2,0.08,24.31c-0.01,2.62,0.68,6.05-2.65,6.89
			c-3.42,0.87-6.75-0.01-9.31-3.12C751.68,725.35,750.49,720.48,744.62,717.63z"/>
		<linearGradient id="SVGID_32_" gradientUnits="userSpaceOnUse" x1="732.6064" y1="713.2916" x2="766.5461" y2="713.2916">
			<stop  offset="0" style="stop-color:#FF00C8"/>
			<stop  offset="0.183" style="stop-color:#FC00C9"/>
			<stop  offset="0.324" style="stop-color:#F200CB"/>
			<stop  offset="0.4509" style="stop-color:#E200D0"/>
			<stop  offset="0.5697" style="stop-color:#CB00D5"/>
			<stop  offset="0.6827" style="stop-color:#AD00DD"/>
			<stop  offset="0.7914" style="stop-color:#8800E7"/>
			<stop  offset="0.8957" style="stop-color:#5C00F2"/>
			<stop  offset="0.9958" style="stop-color:#2B00FE"/>
			<stop  offset="1" style="stop-color:#2900FF"/>
		</linearGradient>
		<path class="st31" d="M738.73,695.4c2.46,0,4.6,1.41,6.56,4.3l0.41,0.61c2.29,3.4,4.46,6.61,6.89,6.61c2.32,0,3.84-2.62,4.94-8.49
			c0.13-0.71,0.54-2.87,3.94-2.87c0.36,0,0.75,0.03,1.14,0.07c2.54,0.32,2.69,1.94,2.72,4.77l0,0.35
			c0.13,8.84,0.11,17.62,0.08,24.29c0,0.4,0.01,0.81,0.03,1.24c0.09,2.8-0.06,4.16-1.87,4.62c-0.74,0.19-1.47,0.28-2.17,0.28
			c-2.35,0-4.38-1.03-6.04-3.05c-0.8-0.98-1.48-2.09-2.19-3.27c-1.72-2.85-3.68-6.07-8.08-8.21l-1.23-0.6l-0.28,1.34
			c-0.17,0.79-0.32,1.49-0.47,2.11c-0.28,1.23-0.5,2.21-0.65,3.22c-0.13,0.86-0.17,1.78-0.2,2.67c-0.13,3.5-0.35,5.33-3.66,5.33
			c-0.27,0-0.57-0.01-0.88-0.04c-4.02-0.35-4.1-2.52-3.88-6.33c0.05-0.86,0.1-1.74,0.05-2.57c-0.3-5.53-0.28-11.54,0.05-18.4
			c0.03-0.66,0.01-1.35-0.02-2.02c-0.11-3.05-0.03-4.96,2.79-5.71C737.41,695.49,738.09,695.4,738.73,695.4 M738.73,694.33
			c-0.72,0-1.48,0.1-2.29,0.32c-4.7,1.25-3.42,5.52-3.57,8.72c-0.29,6.16-0.38,12.36-0.04,18.51c0.2,3.8-1.77,9.33,4.8,9.91
			c0.34,0.03,0.67,0.04,0.97,0.04c5.75,0,4.35-5.21,4.92-8.91c0.23-1.48,0.61-2.95,1.11-5.28c5.87,2.85,7.06,7.72,9.91,11.19
			c1.94,2.36,4.34,3.44,6.87,3.44c0.8,0,1.62-0.11,2.44-0.32c3.33-0.85,2.64-4.27,2.65-6.89c0.04-8.1,0.04-16.21-0.08-24.31
			c-0.04-2.65,0.1-5.7-3.66-6.17c-0.43-0.05-0.86-0.08-1.28-0.08c-2.43,0-4.48,0.99-5,3.75c-1.05,5.62-2.39,7.61-3.88,7.61
			c-1.99,0-4.24-3.54-6.41-6.75C744.22,696.21,741.84,694.33,738.73,694.33L738.73,694.33z"/>
	</g>
	<g>
		<linearGradient id="SVGID_33_" gradientUnits="userSpaceOnUse" x1="381.5829" y1="713.4438" x2="420.6612" y2="713.4438">
			<stop  offset="0" style="stop-color:#FF00C8"/>
			<stop  offset="0.2988" style="stop-color:#FC00C9"/>
			<stop  offset="0.483" style="stop-color:#F400CE"/>
			<stop  offset="0.6361" style="stop-color:#E500D6"/>
			<stop  offset="0.7722" style="stop-color:#D100E1"/>
			<stop  offset="0.8959" style="stop-color:#B700EF"/>
			<stop  offset="1" style="stop-color:#9A00FF"/>
		</linearGradient>
		<path class="st32" d="M400.94,693.88c11.06-0.15,19.77,8.65,19.72,19.91c-0.05,11.05-8.01,19.14-18.92,19.23
			c-10.92,0.09-20.32-9.09-20.16-19.67C381.74,703.3,390.98,694.01,400.94,693.88z M410.33,713.4c-0.79-5.23-3.57-8.57-9.05-8.47
			c-5.43,0.1-8.68,3.25-8.53,8.73c0.15,5.39,3.46,8.49,8.86,8.51C407.19,722.18,409.72,718.66,410.33,713.4z"/>
		<linearGradient id="SVGID_34_" gradientUnits="userSpaceOnUse" x1="381.5829" y1="713.4438" x2="420.6612" y2="713.4438">
			<stop  offset="0" style="stop-color:#FF00C8"/>
			<stop  offset="0.183" style="stop-color:#FC00C9"/>
			<stop  offset="0.324" style="stop-color:#F200CB"/>
			<stop  offset="0.4509" style="stop-color:#E200D0"/>
			<stop  offset="0.5697" style="stop-color:#CB00D5"/>
			<stop  offset="0.6827" style="stop-color:#AD00DD"/>
			<stop  offset="0.7914" style="stop-color:#8800E7"/>
			<stop  offset="0.8957" style="stop-color:#5C00F2"/>
			<stop  offset="0.9958" style="stop-color:#2B00FE"/>
			<stop  offset="1" style="stop-color:#2900FF"/>
		</linearGradient>
		<path class="st33" d="M401.23,693.87v1.07c4.93,0,9.53,1.89,12.94,5.32c3.52,3.53,5.44,8.33,5.42,13.51
			c-0.05,10.44-7.56,18.08-17.85,18.16l-0.15,0c-5.02,0-9.98-2.12-13.61-5.81c-3.5-3.56-5.39-8.09-5.32-12.78
			c0.15-9.5,8.87-18.28,18.3-18.41l0.27,0L401.23,693.87 M401.65,723.23L401.65,723.23c5.64,0,9.01-3.36,9.74-9.71l0.02-0.14
			l-0.02-0.14c-0.92-6.14-4.34-9.38-9.87-9.38l-0.26,0c-3.03,0.05-5.52,1.01-7.2,2.77c-1.64,1.71-2.46,4.15-2.38,7.06
			c0.16,5.96,3.87,9.53,9.93,9.55L401.65,723.23 M401.23,693.87c-0.09,0-0.19,0-0.28,0c-9.97,0.14-19.2,9.43-19.36,19.47
			c-0.16,10.54,9.15,19.67,20,19.67c0.05,0,0.1,0,0.16,0c10.91-0.09,18.87-8.18,18.92-19.23
			C420.71,702.62,412.15,693.87,401.23,693.87L401.23,693.87z M401.66,722.16c-0.01,0-0.03,0-0.04,0c-5.4-0.02-8.71-3.11-8.86-8.51
			c-0.15-5.48,3.1-8.63,8.53-8.73c0.08,0,0.16,0,0.24,0c5.32,0,8.04,3.32,8.81,8.47C409.73,718.65,407.2,722.16,401.66,722.16
			L401.66,722.16z"/>
	</g>
	<g>
		<linearGradient id="SVGID_35_" gradientUnits="userSpaceOnUse" x1="644.3779" y1="713.2789" x2="679.2622" y2="713.2789">
			<stop  offset="0" style="stop-color:#FF00C8"/>
			<stop  offset="0.2988" style="stop-color:#FC00C9"/>
			<stop  offset="0.483" style="stop-color:#F400CE"/>
			<stop  offset="0.6361" style="stop-color:#E500D6"/>
			<stop  offset="0.7722" style="stop-color:#D100E1"/>
			<stop  offset="0.8959" style="stop-color:#B700EF"/>
			<stop  offset="1" style="stop-color:#9A00FF"/>
		</linearGradient>
		<path class="st34" d="M679.26,727.25c-0.21,6.66-5.16,6.13-7.83,3.84c-6.39-5.48-11.73-6.32-17.95-0.07
			c-1.87,1.88-5.21,2.19-7.56,0.53c-3-2.11-0.87-4.92,0.04-7.28c3.2-8.24,6.34-16.51,9.93-24.59c2.49-5.6,7.43-8.6,11.01-2.1
			C672.05,706.95,675.26,717.38,679.26,727.25z"/>
		<linearGradient id="SVGID_36_" gradientUnits="userSpaceOnUse" x1="644.3779" y1="713.2789" x2="679.2622" y2="713.2789">
			<stop  offset="0" style="stop-color:#FF00C8"/>
			<stop  offset="0.183" style="stop-color:#FC00C9"/>
			<stop  offset="0.324" style="stop-color:#F200CB"/>
			<stop  offset="0.4509" style="stop-color:#E200D0"/>
			<stop  offset="0.5697" style="stop-color:#CB00D5"/>
			<stop  offset="0.6827" style="stop-color:#AD00DD"/>
			<stop  offset="0.7914" style="stop-color:#8800E7"/>
			<stop  offset="0.8957" style="stop-color:#5C00F2"/>
			<stop  offset="0.9958" style="stop-color:#2B00FE"/>
			<stop  offset="1" style="stop-color:#2900FF"/>
		</linearGradient>
		<path class="st35" d="M662.2,694.98L662.2,694.98c1.69,0,2.98,1.7,3.77,3.13c3.57,6.5,6.26,13.65,8.85,20.57
			c1.08,2.88,2.2,5.86,3.37,8.76c-0.1,1.94-0.69,4.14-2.88,4.14c-1.02,0-2.23-0.5-3.17-1.3c-3.74-3.2-6.94-4.69-10.07-4.7
			c-3.14,0-6.2,1.53-9.33,4.69c-0.82,0.82-2.03,1.3-3.33,1.3c-1.05,0-2.04-0.3-2.85-0.88c-1.58-1.12-1.26-2.29-0.15-4.69
			c0.2-0.43,0.41-0.88,0.58-1.32l1.19-3.08c2.75-7.09,5.59-14.42,8.71-21.46C658.26,697,660.35,694.98,662.2,694.98 M662.2,693.91
			c-2.43,0-4.81,2.42-6.3,5.79c-3.58,8.08-6.73,16.35-9.93,24.59c-0.92,2.36-3.04,5.16-0.04,7.28c1.04,0.73,2.26,1.08,3.47,1.08
			c1.54,0,3.04-0.56,4.09-1.61c2.99-3.01,5.77-4.37,8.57-4.37c3.02,0,6.06,1.59,9.37,4.44c1.07,0.92,2.51,1.55,3.87,1.55
			c2.02,0,3.84-1.41,3.96-5.4c-4-9.87-7.21-20.3-12.36-29.66C665.47,694.99,663.82,693.91,662.2,693.91L662.2,693.91z"/>
	</g>
	<g>
		<linearGradient id="SVGID_37_" gradientUnits="userSpaceOnUse" x1="569.9589" y1="713.3436" x2="597.5482" y2="713.3436">
			<stop  offset="0" style="stop-color:#FF00C8"/>
			<stop  offset="0.2988" style="stop-color:#FC00C9"/>
			<stop  offset="0.483" style="stop-color:#F400CE"/>
			<stop  offset="0.6361" style="stop-color:#E500D6"/>
			<stop  offset="0.7722" style="stop-color:#D100E1"/>
			<stop  offset="0.8959" style="stop-color:#B700EF"/>
			<stop  offset="1" style="stop-color:#9A00FF"/>
		</linearGradient>
		<path class="st36" d="M570.16,713.51c0-1.92-0.42-3.96,0.08-5.74c1.33-4.73-4.02-12.61,5.8-13.43c8.82-0.73,17.6,0.01,20.78,10.14
			c2.49,7.92-1.64,13.41-9.13,16.1c-3.34,1.2-6.69,1.67-6.91,6.28c-0.2,4.29-2.9,6.23-7,5.55c-4.31-0.71-3.42-4.51-3.59-7.39
			c-0.22-3.83-0.05-7.68-0.05-11.52C570.14,713.51,570.15,713.51,570.16,713.51z"/>
		<linearGradient id="SVGID_38_" gradientUnits="userSpaceOnUse" x1="569.9589" y1="713.3436" x2="597.5483" y2="713.3436">
			<stop  offset="0" style="stop-color:#FF00C8"/>
			<stop  offset="0.183" style="stop-color:#FC00C9"/>
			<stop  offset="0.324" style="stop-color:#F200CB"/>
			<stop  offset="0.4509" style="stop-color:#E200D0"/>
			<stop  offset="0.5697" style="stop-color:#CB00D5"/>
			<stop  offset="0.6827" style="stop-color:#AD00DD"/>
			<stop  offset="0.7914" style="stop-color:#8800E7"/>
			<stop  offset="0.8957" style="stop-color:#5C00F2"/>
			<stop  offset="0.9958" style="stop-color:#2B00FE"/>
			<stop  offset="1" style="stop-color:#2900FF"/>
		</linearGradient>
		<path class="st37" d="M580.52,695.21L580.52,695.21c8.48,0,13.19,2.96,15.28,9.59c2.88,9.18-4.07,13.19-8.47,14.77
			c-0.41,0.15-0.81,0.28-1.21,0.41c-2.9,0.96-6.18,2.05-6.41,6.83c-0.1,2.13-0.95,4.66-4.41,4.66c-0.43,0-0.88-0.04-1.35-0.12
			c-2.56-0.42-2.68-2.02-2.67-4.81c0-0.52,0-1.06-0.03-1.58c-0.15-2.64-0.12-5.35-0.08-7.98c0.01-0.8,0.02-1.6,0.03-2.41h0.04v-1.07
			c0-0.64-0.04-1.28-0.08-1.9c-0.09-1.29-0.17-2.5,0.13-3.55c0.46-1.65,0.23-3.53,0-5.35c-0.28-2.25-0.55-4.37,0.51-5.66
			c0.74-0.91,2.2-1.46,4.35-1.64C577.78,695.28,579.22,695.21,580.52,695.21 M580.52,694.14c-1.47,0-2.97,0.08-4.48,0.21
			c-9.82,0.81-4.47,8.7-5.8,13.43c-0.5,1.78-0.08,3.82-0.08,5.74c-0.01,0-0.02,0-0.04,0c0,3.84-0.17,7.69,0.05,11.52
			c0.17,2.87-0.72,6.67,3.59,7.39c0.53,0.09,1.04,0.13,1.53,0.13c3.23,0,5.3-1.95,5.48-5.68c0.22-4.61,3.57-5.08,6.91-6.28
			c7.5-2.69,11.62-8.18,9.13-16.1C594.18,696.08,587.69,694.14,580.52,694.14L580.52,694.14z"/>
	</g>
	<g>
		<linearGradient id="SVGID_39_" gradientUnits="userSpaceOnUse" x1="300.061" y1="713.5227" x2="330.748" y2="713.5227">
			<stop  offset="0" style="stop-color:#FF00C8"/>
			<stop  offset="0.2988" style="stop-color:#FC00C9"/>
			<stop  offset="0.483" style="stop-color:#F400CE"/>
			<stop  offset="0.6361" style="stop-color:#E500D6"/>
			<stop  offset="0.7722" style="stop-color:#D100E1"/>
			<stop  offset="0.8959" style="stop-color:#B700EF"/>
			<stop  offset="1" style="stop-color:#9A00FF"/>
		</linearGradient>
		<path class="st38" d="M320.59,733.1c-8.87-0.67-15.41-3.49-18.58-11.14c-3.39-8.16-2.48-16.07,3.85-22.48
			c5.25-5.32,11.94-6.83,19.18-4.45c2.9,0.95,6.38,2.02,5.61,6.06c-0.68,3.53-3.46,4.82-7.02,4.35c-6.63-0.87-12.22,1.02-12.2,8.45
			c0.02,6.94,5.54,8.57,11.6,7.69c4.4-0.64,7.41,1.67,7.24,5.35C329.95,733.61,323.43,731.37,320.59,733.1z"/>
		<linearGradient id="SVGID_40_" gradientUnits="userSpaceOnUse" x1="300.0611" y1="713.5227" x2="330.748" y2="713.5227">
			<stop  offset="0" style="stop-color:#FF00C8"/>
			<stop  offset="0.183" style="stop-color:#FC00C9"/>
			<stop  offset="0.324" style="stop-color:#F200CB"/>
			<stop  offset="0.4509" style="stop-color:#E200D0"/>
			<stop  offset="0.5697" style="stop-color:#CB00D5"/>
			<stop  offset="0.6827" style="stop-color:#AD00DD"/>
			<stop  offset="0.7914" style="stop-color:#8800E7"/>
			<stop  offset="0.8957" style="stop-color:#5C00F2"/>
			<stop  offset="0.9958" style="stop-color:#2B00FE"/>
			<stop  offset="1" style="stop-color:#2900FF"/>
		</linearGradient>
		<path class="st39" d="M318.55,695.01c1.98,0,4.05,0.35,6.15,1.04l0.14,0.05c3.32,1.09,5.29,1.95,4.74,4.79
			c-0.45,2.37-2.01,3.57-4.61,3.57c-0.39,0-0.8-0.03-1.22-0.08c-1.04-0.14-2.04-0.21-2.98-0.21c-3.47,0-6.14,0.91-7.94,2.72
			c-1.66,1.66-2.49,4.02-2.49,7c0.02,5.7,3.59,8.97,9.81,8.97c0.95,0,1.97-0.08,3.02-0.23c0.43-0.06,0.86-0.09,1.27-0.09
			c1.57,0,2.9,0.48,3.73,1.36c0.72,0.75,1.07,1.78,1.01,2.98c-0.16,3.5-2.11,3.91-5.28,4.3c-1.24,0.15-2.52,0.31-3.56,0.83
			c-9.32-0.77-14.68-4-17.36-10.45c-3.38-8.13-2.13-15.5,3.62-21.31C310.04,696.77,314.06,695.01,318.55,695.01 M318.55,693.94
			c-4.73,0-9.06,1.86-12.7,5.55c-6.33,6.41-7.23,14.32-3.85,22.48c3.17,7.64,9.72,10.46,18.58,11.14c2.84-1.74,9.36,0.51,9.67-6.17
			c0.15-3.27-2.2-5.46-5.82-5.46c-0.45,0-0.93,0.03-1.42,0.11c-0.97,0.14-1.94,0.22-2.86,0.22c-4.83,0-8.72-2.08-8.74-7.91
			c-0.02-6.34,4.04-8.64,9.36-8.64c0.91,0,1.87,0.07,2.84,0.2c0.47,0.06,0.92,0.09,1.36,0.09c2.9,0,5.08-1.37,5.66-4.44
			c0.77-4.04-2.7-5.11-5.61-6.06C322.81,694.3,320.64,693.94,318.55,693.94L318.55,693.94z"/>
	</g>
	<g>
		<linearGradient id="SVGID_41_" gradientUnits="userSpaceOnUse" x1="819.7166" y1="713.1477" x2="852.3165" y2="713.1477">
			<stop  offset="0" style="stop-color:#FF00C8"/>
			<stop  offset="0.2988" style="stop-color:#FC00C9"/>
			<stop  offset="0.483" style="stop-color:#F400CE"/>
			<stop  offset="0.6361" style="stop-color:#E500D6"/>
			<stop  offset="0.7722" style="stop-color:#D100E1"/>
			<stop  offset="0.8959" style="stop-color:#B700EF"/>
			<stop  offset="1" style="stop-color:#9A00FF"/>
		</linearGradient>
		<path class="st40" d="M836.07,703.94c1.78-2.25,3.39-3.89,4.52-5.81c2.4-4.08,6.61-5.18,9.84-3.24c4.2,2.53,0.28,6.01-1.09,8.78
			c-3.68,7.45-9.55,14.02-8.25,23.31c0.41,2.94-1.01,5.24-4.5,5.35c-3.72,0.12-6.18-1.57-5.76-5.37c1.02-9.18-4.23-15.99-8.11-23.4
			c-1.41-2.69-5.48-6.1-0.84-8.7c3.49-1.96,7.41-0.76,9.7,3.43C832.62,700.21,834.31,701.78,836.07,703.94z"/>
		<linearGradient id="SVGID_42_" gradientUnits="userSpaceOnUse" x1="819.7166" y1="713.1477" x2="852.3165" y2="713.1477">
			<stop  offset="0" style="stop-color:#FF00C8"/>
			<stop  offset="0.183" style="stop-color:#FC00C9"/>
			<stop  offset="0.324" style="stop-color:#F200CB"/>
			<stop  offset="0.4509" style="stop-color:#E200D0"/>
			<stop  offset="0.5697" style="stop-color:#CB00D5"/>
			<stop  offset="0.6827" style="stop-color:#AD00DD"/>
			<stop  offset="0.7914" style="stop-color:#8800E7"/>
			<stop  offset="0.8957" style="stop-color:#5C00F2"/>
			<stop  offset="0.9958" style="stop-color:#2B00FE"/>
			<stop  offset="1" style="stop-color:#2900FF"/>
		</linearGradient>
		<path class="st41" d="M825.21,693.95v1.07c2.13,0,4.11,1.38,5.43,3.79c0.76,1.4,1.83,2.6,2.95,3.88c0.54,0.61,1.09,1.24,1.65,1.92
			l0.84,1.04l0.83-1.05c0.57-0.73,1.13-1.39,1.67-2.03c1.1-1.3,2.13-2.54,2.94-3.9c1.36-2.31,3.41-3.64,5.6-3.64
			c0.96,0,1.91,0.27,2.76,0.78c0.78,0.47,1.21,0.95,1.33,1.49c0.24,1.07-0.75,2.57-1.62,3.89c-0.44,0.66-0.89,1.35-1.21,2.01
			c-0.85,1.72-1.85,3.44-2.81,5.11c-3.24,5.59-6.59,11.36-5.54,18.83c0.12,0.88,0.11,2.12-0.64,3.01c-0.59,0.7-1.54,1.08-2.84,1.12
			c-0.11,0-0.23,0.01-0.34,0.01c-1.15,0-2.72-0.21-3.61-1.21c-0.61-0.68-0.85-1.69-0.71-2.98c0.87-7.84-2.63-14.02-6.01-20
			c-0.74-1.31-1.51-2.67-2.22-4.02c-0.33-0.62-0.77-1.27-1.2-1.89c-0.88-1.27-1.88-2.71-1.64-3.76c0.13-0.57,0.66-1.12,1.57-1.63
			c0.92-0.52,1.86-0.78,2.81-0.78V693.95 M825.21,693.95c-1.11,0-2.24,0.3-3.33,0.92c-4.63,2.6-0.57,6.01,0.84,8.7
			c3.88,7.41,9.13,14.21,8.11,23.4c-0.41,3.67,1.88,5.37,5.38,5.37c0.12,0,0.25,0,0.37-0.01c3.49-0.12,4.91-2.41,4.5-5.35
			c-1.3-9.29,4.57-15.87,8.25-23.31c1.37-2.77,5.3-6.25,1.09-8.78c-1.03-0.62-2.17-0.93-3.31-0.93c-2.43,0-4.89,1.4-6.53,4.17
			c-1.13,1.92-2.74,3.55-4.52,5.81c-1.75-2.16-3.44-3.72-4.49-5.64C830,695.42,827.65,693.95,825.21,693.95L825.21,693.95z"/>
	</g>
	<g>
		<linearGradient id="SVGID_43_" gradientUnits="userSpaceOnUse" x1="1129.9801" y1="597.6823" x2="1175.7549" y2="597.6823">
			<stop  offset="0" style="stop-color:#FF00C8"/>
			<stop  offset="0.2988" style="stop-color:#FC00C9"/>
			<stop  offset="0.483" style="stop-color:#F400CE"/>
			<stop  offset="0.6361" style="stop-color:#E500D6"/>
			<stop  offset="0.7722" style="stop-color:#D100E1"/>
			<stop  offset="0.8959" style="stop-color:#B700EF"/>
			<stop  offset="1" style="stop-color:#9A00FF"/>
		</linearGradient>
		<path class="st42" d="M1175.75,623.12c-10.13,1.9-17.08-1.42-20.28-11.75c-1.18-3.82-3.9-7.2-8.44-6.4
			c-4.98,0.87-3.01,5.45-3.34,8.57c-0.47,4.46,0.82,9.65-6.43,9.83c-7.81,0.19-7.24-5.25-7.28-10.26
			c-0.07-10.4,0.08-20.79-0.02-31.19c-0.07-6.92,2.1-10.96,10.08-10.04c6.09,0.7,12.4-0.16,18.4,0.9
			c8.44,1.48,14.6,11.31,9.99,17.93c-5.48,7.87-2.43,12.69,1.39,18.95c2.55,4.17,3.86,9.09,5.72,13.67
			C1175.56,623.32,1175.75,623.12,1175.75,623.12z M1148.78,582.1c-5.06,0.1-5.32,3.47-5.29,7.07c0.03,2.96,0.86,5.48,4.39,5.09
			c3.47-0.38,6.88-1.54,7.05-5.87C1155.09,584.21,1152.5,582.38,1148.78,582.1z"/>
		<linearGradient id="SVGID_44_" gradientUnits="userSpaceOnUse" x1="1129.98" y1="597.6823" x2="1175.7549" y2="597.6823">
			<stop  offset="0" style="stop-color:#FF00C8"/>
			<stop  offset="0.183" style="stop-color:#FC00C9"/>
			<stop  offset="0.324" style="stop-color:#F200CB"/>
			<stop  offset="0.4509" style="stop-color:#E200D0"/>
			<stop  offset="0.5697" style="stop-color:#CB00D5"/>
			<stop  offset="0.6827" style="stop-color:#AD00DD"/>
			<stop  offset="0.7914" style="stop-color:#8800E7"/>
			<stop  offset="0.8957" style="stop-color:#5C00F2"/>
			<stop  offset="0.9958" style="stop-color:#2B00FE"/>
			<stop  offset="1" style="stop-color:#2900FF"/>
		</linearGradient>
		<path class="st43" d="M1137.95,572.81c0.61,0,1.28,0.04,1.99,0.12c2.8,0.32,5.65,0.32,8.41,0.32c3.3,0,6.71,0,9.92,0.57
			c4.23,0.74,8.2,3.95,9.87,7.98c1.25,3.01,1.05,5.95-0.58,8.29c-5.82,8.37-2.55,13.73,1.25,19.94l0.11,0.18
			c1.7,2.79,2.87,6.03,4,9.16c0.35,0.97,0.71,1.96,1.08,2.95c-1.17,0.16-2.28,0.24-3.33,0.24c-7.15,0-11.79-3.76-14.19-11.5
			c-1.43-4.62-4.4-7.28-8.16-7.28c-0.48,0-0.99,0.04-1.49,0.13c-4.7,0.82-4.43,4.66-4.26,7.19c0.06,0.84,0.11,1.64,0.04,2.32
			c-0.08,0.8-0.11,1.61-0.14,2.39c-0.14,3.83-0.24,6.36-5.24,6.48c-0.13,0-0.25,0-0.37,0c-2.05,0-3.48-0.43-4.37-1.32
			c-1.44-1.44-1.44-4.07-1.43-6.86c0-0.34,0-0.68,0-1.02c-0.03-4.85-0.02-9.78,0-14.56c0.02-5.45,0.04-11.09-0.02-16.63
			c-0.04-3.71,0.59-6.08,1.96-7.47C1134.1,573.34,1135.71,572.81,1137.95,572.81 M1147.19,595.37c0.26,0,0.53-0.02,0.8-0.05
			c1.92-0.21,7.77-0.85,8-6.89c0.17-4.35-2.43-7.05-7.14-7.41l-0.05,0l-0.05,0c-6.41,0.12-6.37,5.15-6.34,8.15
			C1142.44,592,1143.29,595.37,1147.19,595.37 M1137.95,571.74c-6.26,0-8.03,3.91-7.97,10.17c0.1,10.39-0.05,20.79,0.02,31.19
			c0.03,4.93-0.52,10.27,6.88,10.27c0.13,0,0.26,0,0.4-0.01c7.25-0.18,5.96-5.37,6.43-9.83c0.33-3.12-1.64-7.69,3.34-8.57
			c0.45-0.08,0.89-0.12,1.31-0.12c3.76,0,6.07,3.08,7.13,6.52c2.63,8.51,7.81,12.26,15.21,12.26c1.51,0,3.12-0.16,4.81-0.46
			c-1.83-4.54-3.14-9.4-5.66-13.52c-3.83-6.26-6.87-11.08-1.39-18.95c4.61-6.63-1.55-16.45-9.99-17.93c-6-1.05-12.31-0.2-18.4-0.9
			C1139.3,571.78,1138.6,571.74,1137.95,571.74L1137.95,571.74z M1147.19,594.3c-2.95,0-3.68-2.38-3.7-5.13
			c-0.03-3.6,0.23-6.98,5.29-7.07c3.72,0.28,6.31,2.11,6.15,6.29c-0.17,4.33-3.58,5.49-7.05,5.87
			C1147.64,594.29,1147.41,594.3,1147.19,594.3L1147.19,594.3z M1175.75,623.12c-0.09,0.02-0.17,0.03-0.26,0.05
			c0.02,0.05,0.04,0.1,0.06,0.16C1175.56,623.32,1175.75,623.12,1175.75,623.12L1175.75,623.12z"/>
	</g>
	<g>
		<path class="st44" d="M1148.78,582.1c3.72,0.28,6.31,2.11,6.15,6.29c-0.17,4.33-3.58,5.49-7.05,5.87
			c-3.53,0.39-4.36-2.14-4.39-5.09C1143.46,585.57,1143.72,582.19,1148.78,582.1z"/>
		<linearGradient id="SVGID_45_" gradientUnits="userSpaceOnUse" x1="1143.4883" y1="588.1992" x2="1154.9374" y2="588.1992">
			<stop  offset="0" style="stop-color:#FF00C8"/>
			<stop  offset="0.183" style="stop-color:#FC00C9"/>
			<stop  offset="0.324" style="stop-color:#F200CB"/>
			<stop  offset="0.4509" style="stop-color:#E200D0"/>
			<stop  offset="0.5697" style="stop-color:#CB00D5"/>
			<stop  offset="0.6827" style="stop-color:#AD00DD"/>
			<stop  offset="0.7914" style="stop-color:#8800E7"/>
			<stop  offset="0.8957" style="stop-color:#5C00F2"/>
			<stop  offset="0.9958" style="stop-color:#2B00FE"/>
			<stop  offset="1" style="stop-color:#2900FF"/>
		</linearGradient>
		<path class="st45" d="M1148.75,583.17c3.56,0.28,5.23,1.98,5.11,5.18c-0.11,2.94-1.94,4.39-6.09,4.85
			c-0.2,0.02-0.39,0.03-0.57,0.03c-1.35,0-2.6-0.49-2.63-4.07C1144.53,585.01,1145.1,583.26,1148.75,583.17 M1148.78,582.1
			c-5.06,0.1-5.32,3.47-5.29,7.07c0.02,2.75,0.75,5.13,3.7,5.13c0.22,0,0.44-0.01,0.69-0.04c3.47-0.38,6.88-1.54,7.05-5.87
			C1155.09,584.21,1152.5,582.38,1148.78,582.1L1148.78,582.1z"/>
	</g>
</g>
<linearGradient id="SVGID_46_" gradientUnits="userSpaceOnUse" x1="578.1066" y1="707.9645" x2="591.477" y2="707.9645">
	<stop  offset="0" style="stop-color:#FF00C8"/>
	<stop  offset="0.183" style="stop-color:#FC00C9"/>
	<stop  offset="0.324" style="stop-color:#F200CB"/>
	<stop  offset="0.4509" style="stop-color:#E200D0"/>
	<stop  offset="0.5697" style="stop-color:#CB00D5"/>
	<stop  offset="0.6827" style="stop-color:#AD00DD"/>
	<stop  offset="0.7914" style="stop-color:#8800E7"/>
	<stop  offset="0.8957" style="stop-color:#5C00F2"/>
	<stop  offset="0.9958" style="stop-color:#2B00FE"/>
	<stop  offset="1" style="stop-color:#2900FF"/>
</linearGradient>
<path class="st46" d="M578.9,702.04c0,0,7.19-1.8,9.81,0.98c0.52,0.55,0.94,1.08,1.29,1.58c1.58,2.29,1.24,5.49-0.88,7.29
	c-0.79,0.67-1.75,1.19-2.85,1.59l-2.97,0.83c-0.35,0.1-0.72,0.15-1.09,0.15h-2.35c-0.54,0-1-0.41-1.05-0.95
	C578.49,709.89,578.57,706.04,578.9,702.04z"/>
<linearGradient id="SVGID_47_" gradientUnits="userSpaceOnUse" x1="656.5274" y1="712.5891" x2="668.3778" y2="712.5891">
	<stop  offset="0" style="stop-color:#FF00C8"/>
	<stop  offset="0.183" style="stop-color:#FC00C9"/>
	<stop  offset="0.324" style="stop-color:#F200CB"/>
	<stop  offset="0.4509" style="stop-color:#E200D0"/>
	<stop  offset="0.5697" style="stop-color:#CB00D5"/>
	<stop  offset="0.6827" style="stop-color:#AD00DD"/>
	<stop  offset="0.7914" style="stop-color:#8800E7"/>
	<stop  offset="0.8957" style="stop-color:#5C00F2"/>
	<stop  offset="0.9958" style="stop-color:#2B00FE"/>
	<stop  offset="1" style="stop-color:#2900FF"/>
</linearGradient>
<path class="st47" d="M657.05,717.39c-0.17,0.68,0.45,1.28,1.12,1.09c2.26-0.67,6.2-0.79,8.9-0.07c2.39,0.63-1.12-6.55-3.07-10.82
	c-0.52-1.14-2.09-1.23-2.75-0.17C659.95,709.51,658.14,712.98,657.05,717.39z"/>
</svg>
